<?xml version="1.0" encoding="UTF-8" standalone="no"?>
<!DOCTYPE svg PUBLIC "-//W3C//DTD SVG 1.1//EN"
 "http://www.w3.org/Graphics/SVG/1.1/DTD/svg11.dtd">
<!-- Generated by graphviz version 2.40.1 (20161225.0304)
 -->
<!-- Title: auth_group Pages: 1 -->
<svg width="1270pt" height="442pt"
 viewBox="0.00 0.00 1270.00 442.00" xmlns="http://www.w3.org/2000/svg" xmlns:xlink="http://www.w3.org/1999/xlink">
<g id="graph0" class="graph" transform="scale(1 1) rotate(0) translate(4 438)">
<title>auth_group</title>
<polygon fill="#ffffff" stroke="transparent" points="-4,4 -4,-438 1266,-438 1266,4 -4,4"/>
<!-- auth_group -->
<g id="node1" class="node">
<title>auth_group</title>
<polygon fill="#efefef" stroke="transparent" points="544,-105.5 544,-140.5 691,-140.5 691,-105.5 544,-105.5"/>
<polygon fill="none" stroke="#000000" points="544,-105.5 544,-140.5 691,-140.5 691,-105.5 544,-105.5"/>
<text text-anchor="start" x="550.9696" y="-118.3" font-family="Arial Bold" font-size="18.00" fill="#000000">auth_group</text>
<text text-anchor="start" x="642.0136" y="-118.3" font-family="Arial" font-size="14.00" fill="#000000"> </text>
<text text-anchor="start" x="645.9042" y="-118.3" font-family="Arial" font-size="14.00" fill="#666666">[table]</text>
<polygon fill="none" stroke="#000000" points="544,-75.5 544,-105.5 691,-105.5 691,-75.5 544,-75.5"/>
<text text-anchor="start" x="551" y="-86.9" font-family="Arial" font-size="14.00" fill="#000000">id </text>
<text text-anchor="start" x="565.7798" y="-86.9" font-family="Arial" font-size="14.00" fill="#666666">[integer]</text>
<polygon fill="none" stroke="#000000" points="544,-45.5 544,-75.5 691,-75.5 691,-45.5 544,-45.5"/>
<text text-anchor="start" x="551" y="-56.9" font-family="Arial" font-size="14.00" fill="#000000">name </text>
<text text-anchor="start" x="589.899" y="-56.9" font-family="Arial" font-size="14.00" fill="#666666">[varchar(150)]</text>
<polygon fill="none" stroke="#000000" stroke-width="3" points="542,-44.5 542,-142.5 692,-142.5 692,-44.5 542,-44.5"/>
</g>
<!-- auth_group_permissions -->
<g id="node2" class="node">
<title>auth_group_permissions</title>
<polygon fill="#efefef" stroke="transparent" points="326,-355.5 326,-390.5 579,-390.5 579,-355.5 326,-355.5"/>
<polygon fill="none" stroke="#000000" points="326,-355.5 326,-390.5 579,-390.5 579,-355.5 326,-355.5"/>
<text text-anchor="start" x="332.9677" y="-368.3" font-family="Arial Bold" font-size="18.00" fill="#000000">auth_group_permissions</text>
<text text-anchor="start" x="530.0155" y="-368.3" font-family="Arial" font-size="14.00" fill="#000000"> </text>
<text text-anchor="start" x="533.9061" y="-368.3" font-family="Arial" font-size="14.00" fill="#666666">[table]</text>
<polygon fill="none" stroke="#000000" points="326,-325.5 326,-355.5 579,-355.5 579,-325.5 326,-325.5"/>
<text text-anchor="start" x="333" y="-336.9" font-family="Arial" font-size="14.00" fill="#000000">id </text>
<text text-anchor="start" x="347.7798" y="-336.9" font-family="Arial" font-size="14.00" fill="#666666">[integer]</text>
<polygon fill="none" stroke="#000000" points="326,-295.5 326,-325.5 579,-325.5 579,-295.5 326,-295.5"/>
<text text-anchor="start" x="333" y="-306.9" font-family="Arial" font-size="14.00" fill="#000000">group_id </text>
<text text-anchor="start" x="391.3534" y="-306.9" font-family="Arial" font-size="14.00" fill="#666666">[integer]</text>
<polygon fill="none" stroke="#000000" points="326,-265.5 326,-295.5 579,-295.5 579,-265.5 326,-265.5"/>
<text text-anchor="start" x="333" y="-276.9" font-family="Arial" font-size="14.00" fill="#000000">permission_id </text>
<text text-anchor="start" x="423.2272" y="-276.9" font-family="Arial" font-size="14.00" fill="#666666">[integer]</text>
</g>
<!-- auth_group_permissions&#45;&gt;auth_group -->
<g id="edge1" class="edge">
<title>auth_group_permissions:group_id&#45;&gt;auth_group:id</title>
<path fill="none" stroke="#000000" d="M588.9711,-308.9774C613.0604,-300.2049 592.143,-255.373 579,-223 570.6057,-202.3237 552.3943,-207.6763 544,-187 527.8666,-147.2612 501.1111,-90.5 544,-90.5"/>
<polygon fill="#000000" stroke="#000000" points="588.8854,-308.9904 578.3207,-306.0516 583.9427,-309.7452 579,-310.5 579,-310.5 579,-310.5 583.9427,-309.7452 579.6793,-314.9484 588.8854,-308.9904 588.8854,-308.9904"/>
<text text-anchor="start" x="7.215" y="-320.5" font-family="Arial" font-size="10.00" fill="#000000">FOREIGN KEY (group_id) REFERENCES auth_group (id) ON UPDATE NO ACTION ON DELETE NO ACTION MATCH NONE</text>
</g>
<!-- auth_user_groups -->
<g id="node3" class="node">
<title>auth_user_groups</title>
<polygon fill="#efefef" stroke="transparent" points="683,-355.5 683,-390.5 884,-390.5 884,-355.5 683,-355.5"/>
<polygon fill="none" stroke="#000000" points="683,-355.5 683,-390.5 884,-390.5 884,-355.5 683,-355.5"/>
<text text-anchor="start" x="689.9642" y="-368.3" font-family="Arial Bold" font-size="18.00" fill="#000000">auth_user_groups</text>
<text text-anchor="start" x="835.019" y="-368.3" font-family="Arial" font-size="14.00" fill="#000000"> </text>
<text text-anchor="start" x="838.9096" y="-368.3" font-family="Arial" font-size="14.00" fill="#666666">[table]</text>
<polygon fill="none" stroke="#000000" points="683,-325.5 683,-355.5 884,-355.5 884,-325.5 683,-325.5"/>
<text text-anchor="start" x="690" y="-336.9" font-family="Arial" font-size="14.00" fill="#000000">id </text>
<text text-anchor="start" x="704.7798" y="-336.9" font-family="Arial" font-size="14.00" fill="#666666">[integer]</text>
<polygon fill="none" stroke="#000000" points="683,-295.5 683,-325.5 884,-325.5 884,-295.5 683,-295.5"/>
<text text-anchor="start" x="690" y="-306.9" font-family="Arial" font-size="14.00" fill="#000000">user_id </text>
<text text-anchor="start" x="739.7882" y="-306.9" font-family="Arial" font-size="14.00" fill="#666666">[integer]</text>
<polygon fill="none" stroke="#000000" points="683,-265.5 683,-295.5 884,-295.5 884,-265.5 683,-265.5"/>
<text text-anchor="start" x="690" y="-276.9" font-family="Arial" font-size="14.00" fill="#000000">group_id </text>
<text text-anchor="start" x="748.3534" y="-276.9" font-family="Arial" font-size="14.00" fill="#666666">[integer]</text>
</g>
<!-- auth_user_groups&#45;&gt;auth_group -->
<g id="edge2" class="edge">
<title>auth_user_groups:group_id&#45;&gt;auth_group:id</title>
<path fill="none" stroke="#000000" d="M673.2713,-277.3705C665.2797,-268.6989 680.7343,-243.6399 683,-223 689.4375,-164.3561 749.9961,-90.5 691,-90.5"/>
<polygon fill="#000000" stroke="#000000" points="673.4804,-277.4377 681.622,-284.7838 678.2402,-278.9688 683,-280.5 683,-280.5 683,-280.5 678.2402,-278.9688 684.378,-276.2162 673.4804,-277.4377 673.4804,-277.4377"/>
<text text-anchor="start" x="690.215" y="-290.5" font-family="Arial" font-size="10.00" fill="#000000">FOREIGN KEY (group_id) REFERENCES auth_group (id) ON UPDATE NO ACTION ON DELETE NO ACTION MATCH NONE</text>
</g>
</g>
</svg>
