<?xml version="1.0" encoding="UTF-8" standalone="no"?>
<!DOCTYPE svg PUBLIC "-//W3C//DTD SVG 1.1//EN"
 "http://www.w3.org/Graphics/SVG/1.1/DTD/svg11.dtd">
<!-- Generated by graphviz version 2.40.1 (20161225.0304)
 -->
<!-- Title: auth_group_permissions Pages: 1 -->
<svg width="1465pt" height="502pt"
 viewBox="0.00 0.00 1465.00 502.00" xmlns="http://www.w3.org/2000/svg" xmlns:xlink="http://www.w3.org/1999/xlink">
<g id="graph0" class="graph" transform="scale(1 1) rotate(0) translate(4 498)">
<title>auth_group_permissions</title>
<polygon fill="#ffffff" stroke="transparent" points="-4,4 -4,-498 1461,-498 1461,4 -4,4"/>
<!-- auth_group_permissions -->
<g id="node1" class="node">
<title>auth_group_permissions</title>
<polygon fill="#efefef" stroke="transparent" points="579,-412.5 579,-447.5 832,-447.5 832,-412.5 579,-412.5"/>
<polygon fill="none" stroke="#000000" points="579,-412.5 579,-447.5 832,-447.5 832,-412.5 579,-412.5"/>
<text text-anchor="start" x="585.9677" y="-425.3" font-family="Arial Bold" font-size="18.00" fill="#000000">auth_group_permissions</text>
<text text-anchor="start" x="783.0155" y="-425.3" font-family="Arial" font-size="14.00" fill="#000000"> </text>
<text text-anchor="start" x="786.9061" y="-425.3" font-family="Arial" font-size="14.00" fill="#666666">[table]</text>
<polygon fill="none" stroke="#000000" points="579,-382.5 579,-412.5 832,-412.5 832,-382.5 579,-382.5"/>
<text text-anchor="start" x="586" y="-393.9" font-family="Arial" font-size="14.00" fill="#000000">id </text>
<text text-anchor="start" x="600.7798" y="-393.9" font-family="Arial" font-size="14.00" fill="#666666">[integer]</text>
<polygon fill="none" stroke="#000000" points="579,-352.5 579,-382.5 832,-382.5 832,-352.5 579,-352.5"/>
<text text-anchor="start" x="586" y="-363.9" font-family="Arial" font-size="14.00" fill="#000000">group_id </text>
<text text-anchor="start" x="644.3534" y="-363.9" font-family="Arial" font-size="14.00" fill="#666666">[integer]</text>
<polygon fill="none" stroke="#000000" points="579,-322.5 579,-352.5 832,-352.5 832,-322.5 579,-322.5"/>
<text text-anchor="start" x="586" y="-333.9" font-family="Arial" font-size="14.00" fill="#000000">permission_id </text>
<text text-anchor="start" x="676.2272" y="-333.9" font-family="Arial" font-size="14.00" fill="#666666">[integer]</text>
<polygon fill="none" stroke="#000000" stroke-width="3" points="577,-321.5 577,-449.5 833,-449.5 833,-321.5 577,-321.5"/>
</g>
<!-- auth_group -->
<g id="node2" class="node">
<title>auth_group</title>
<polygon fill="#efefef" stroke="transparent" points="497,-132.5 497,-167.5 644,-167.5 644,-132.5 497,-132.5"/>
<polygon fill="none" stroke="#000000" points="497,-132.5 497,-167.5 644,-167.5 644,-132.5 497,-132.5"/>
<text text-anchor="start" x="503.9696" y="-145.3" font-family="Arial Bold" font-size="18.00" fill="#000000">auth_group</text>
<text text-anchor="start" x="595.0136" y="-145.3" font-family="Arial" font-size="14.00" fill="#000000"> </text>
<text text-anchor="start" x="598.9042" y="-145.3" font-family="Arial" font-size="14.00" fill="#666666">[table]</text>
<polygon fill="none" stroke="#000000" points="497,-102.5 497,-132.5 644,-132.5 644,-102.5 497,-102.5"/>
<text text-anchor="start" x="504" y="-113.9" font-family="Arial" font-size="14.00" fill="#000000">id </text>
<text text-anchor="start" x="518.7798" y="-113.9" font-family="Arial" font-size="14.00" fill="#666666">[integer]</text>
<polygon fill="none" stroke="#000000" points="497,-72.5 497,-102.5 644,-102.5 644,-72.5 497,-72.5"/>
<text text-anchor="start" x="504" y="-83.9" font-family="Arial" font-size="14.00" fill="#000000">name </text>
<text text-anchor="start" x="542.899" y="-83.9" font-family="Arial" font-size="14.00" fill="#666666">[varchar(150)]</text>
</g>
<!-- auth_group_permissions&#45;&gt;auth_group -->
<g id="edge1" class="edge">
<title>auth_group_permissions:group_id&#45;&gt;auth_group:id</title>
<path fill="none" stroke="#000000" d="M569.0116,-366.0402C543.5624,-357.2467 565.2389,-310.5843 579,-277 594.61,-238.9035 628.39,-249.0965 644,-211 659.756,-172.5473 685.5556,-117.5 644,-117.5"/>
<polygon fill="#000000" stroke="#000000" points="569.1051,-366.0538 578.3492,-371.9527 574.0526,-366.7769 579,-367.5 579,-367.5 579,-367.5 574.0526,-366.7769 579.6508,-363.0473 569.1051,-366.0538 569.1051,-366.0538"/>
<text text-anchor="start" x="7.215" y="-377.5" font-family="Arial" font-size="10.00" fill="#000000">FOREIGN KEY (group_id) REFERENCES auth_group (id) ON UPDATE NO ACTION ON DELETE NO ACTION MATCH NONE</text>
</g>
<!-- auth_permission -->
<g id="node3" class="node">
<title>auth_permission</title>
<polygon fill="#efefef" stroke="transparent" points="748,-162.5 748,-197.5 936,-197.5 936,-162.5 748,-162.5"/>
<polygon fill="none" stroke="#000000" points="748,-162.5 748,-197.5 936,-197.5 936,-162.5 748,-162.5"/>
<text text-anchor="start" x="754.9793" y="-175.3" font-family="Arial Bold" font-size="18.00" fill="#000000">auth_permission</text>
<text text-anchor="start" x="887.0039" y="-175.3" font-family="Arial" font-size="14.00" fill="#000000"> </text>
<text text-anchor="start" x="890.8945" y="-175.3" font-family="Arial" font-size="14.00" fill="#666666">[table]</text>
<polygon fill="none" stroke="#000000" points="748,-132.5 748,-162.5 936,-162.5 936,-132.5 748,-132.5"/>
<text text-anchor="start" x="755" y="-143.9" font-family="Arial" font-size="14.00" fill="#000000">id </text>
<text text-anchor="start" x="769.7798" y="-143.9" font-family="Arial" font-size="14.00" fill="#666666">[integer]</text>
<polygon fill="none" stroke="#000000" points="748,-102.5 748,-132.5 936,-132.5 936,-102.5 748,-102.5"/>
<text text-anchor="start" x="755" y="-113.9" font-family="Arial" font-size="14.00" fill="#000000">content_type_id </text>
<text text-anchor="start" x="857.7124" y="-113.9" font-family="Arial" font-size="14.00" fill="#666666">[integer]</text>
<polygon fill="none" stroke="#000000" points="748,-72.5 748,-102.5 936,-102.5 936,-72.5 748,-72.5"/>
<text text-anchor="start" x="755" y="-83.9" font-family="Arial" font-size="14.00" fill="#000000">codename </text>
<text text-anchor="start" x="824.2468" y="-83.9" font-family="Arial" font-size="14.00" fill="#666666">[varchar(100)]</text>
<polygon fill="none" stroke="#000000" points="748,-42.5 748,-72.5 936,-72.5 936,-42.5 748,-42.5"/>
<text text-anchor="start" x="755" y="-53.9" font-family="Arial" font-size="14.00" fill="#000000">name </text>
<text text-anchor="start" x="793.899" y="-53.9" font-family="Arial" font-size="14.00" fill="#666666">[varchar(255)]</text>
</g>
<!-- auth_group_permissions&#45;&gt;auth_permission -->
<g id="edge2" class="edge">
<title>auth_group_permissions:permission_id&#45;&gt;auth_permission:id</title>
<path fill="none" stroke="#000000" d="M841.8878,-334.9177C855.0455,-325.9897 844.4893,-295.9405 832,-277 809.6405,-243.0909 770.3595,-274.9091 748,-241 725.124,-206.3077 706.4444,-147.5 748,-147.5"/>
<polygon fill="#000000" stroke="#000000" points="841.6755,-334.9731 830.8629,-333.146 836.8377,-336.2365 832,-337.5 832,-337.5 832,-337.5 836.8377,-336.2365 833.1371,-341.854 841.6755,-334.9731 841.6755,-334.9731"/>
<text text-anchor="start" x="839.448" y="-347.5" font-family="Arial" font-size="10.00" fill="#000000">FOREIGN KEY (permission_id) REFERENCES auth_permission (id) ON UPDATE NO ACTION ON DELETE NO ACTION MATCH NONE</text>
</g>
</g>
</svg>
