<?xml version="1.0" encoding="UTF-8" standalone="no"?>
<!DOCTYPE svg PUBLIC "-//W3C//DTD SVG 1.1//EN"
 "http://www.w3.org/Graphics/SVG/1.1/DTD/svg11.dtd">
<!-- Generated by graphviz version 2.40.1 (20161225.0304)
 -->
<!-- Title: auth_user_user_permissions Pages: 1 -->
<svg width="1487pt" height="712pt"
 viewBox="0.00 0.00 1487.00 712.00" xmlns="http://www.w3.org/2000/svg" xmlns:xlink="http://www.w3.org/1999/xlink">
<g id="graph0" class="graph" transform="scale(1 1) rotate(0) translate(4 708)">
<title>auth_user_user_permissions</title>
<polygon fill="#ffffff" stroke="transparent" points="-4,4 -4,-708 1483,-708 1483,4 -4,4"/>
<!-- auth_user_user_permissions -->
<g id="node1" class="node">
<title>auth_user_user_permissions</title>
<polygon fill="#efefef" stroke="transparent" points="567,-622.5 567,-657.5 854,-657.5 854,-622.5 567,-622.5"/>
<polygon fill="none" stroke="#000000" points="567,-622.5 567,-657.5 854,-657.5 854,-622.5 567,-622.5"/>
<text text-anchor="start" x="573.9685" y="-635.3" font-family="Arial Bold" font-size="18.00" fill="#000000">auth_user_user_permissions</text>
<text text-anchor="start" x="805.0147" y="-635.3" font-family="Arial" font-size="14.00" fill="#000000"> </text>
<text text-anchor="start" x="808.9053" y="-635.3" font-family="Arial" font-size="14.00" fill="#666666">[table]</text>
<polygon fill="none" stroke="#000000" points="567,-592.5 567,-622.5 854,-622.5 854,-592.5 567,-592.5"/>
<text text-anchor="start" x="574" y="-603.9" font-family="Arial" font-size="14.00" fill="#000000">id </text>
<text text-anchor="start" x="588.7798" y="-603.9" font-family="Arial" font-size="14.00" fill="#666666">[integer]</text>
<polygon fill="none" stroke="#000000" points="567,-562.5 567,-592.5 854,-592.5 854,-562.5 567,-562.5"/>
<text text-anchor="start" x="574" y="-573.9" font-family="Arial" font-size="14.00" fill="#000000">user_id </text>
<text text-anchor="start" x="623.7882" y="-573.9" font-family="Arial" font-size="14.00" fill="#666666">[integer]</text>
<polygon fill="none" stroke="#000000" points="567,-532.5 567,-562.5 854,-562.5 854,-532.5 567,-532.5"/>
<text text-anchor="start" x="574" y="-543.9" font-family="Arial" font-size="14.00" fill="#000000">permission_id </text>
<text text-anchor="start" x="664.2272" y="-543.9" font-family="Arial" font-size="14.00" fill="#666666">[integer]</text>
<polygon fill="none" stroke="#000000" stroke-width="3" points="565,-531.5 565,-659.5 855,-659.5 855,-531.5 565,-531.5"/>
</g>
<!-- auth_user -->
<g id="node2" class="node">
<title>auth_user</title>
<polygon fill="#efefef" stroke="transparent" points="485,-372.5 485,-407.5 655,-407.5 655,-372.5 485,-372.5"/>
<polygon fill="none" stroke="#000000" points="485,-372.5 485,-407.5 655,-407.5 655,-372.5 485,-372.5"/>
<text text-anchor="start" x="508.9758" y="-385.3" font-family="Arial Bold" font-size="18.00" fill="#000000">auth_user</text>
<text text-anchor="start" x="589.0074" y="-385.3" font-family="Arial" font-size="14.00" fill="#000000"> </text>
<text text-anchor="start" x="592.898" y="-385.3" font-family="Arial" font-size="14.00" fill="#666666">[table]</text>
<polygon fill="none" stroke="#000000" points="485,-342.5 485,-372.5 655,-372.5 655,-342.5 485,-342.5"/>
<text text-anchor="start" x="492" y="-353.9" font-family="Arial" font-size="14.00" fill="#000000">id </text>
<text text-anchor="start" x="506.7798" y="-353.9" font-family="Arial" font-size="14.00" fill="#666666">[integer]</text>
<polygon fill="none" stroke="#000000" points="485,-312.5 485,-342.5 655,-342.5 655,-312.5 485,-312.5"/>
<text text-anchor="start" x="492" y="-323.9" font-family="Arial" font-size="14.00" fill="#000000">password </text>
<text text-anchor="start" x="555.7882" y="-323.9" font-family="Arial" font-size="14.00" fill="#666666">[varchar(128)]</text>
<polygon fill="none" stroke="#000000" points="485,-282.5 485,-312.5 655,-312.5 655,-282.5 485,-282.5"/>
<text text-anchor="start" x="492" y="-293.9" font-family="Arial" font-size="14.00" fill="#000000">last_login </text>
<text text-anchor="start" x="555.014" y="-293.9" font-family="Arial" font-size="14.00" fill="#666666">[datetime]</text>
<polygon fill="none" stroke="#000000" points="485,-252.5 485,-282.5 655,-282.5 655,-252.5 485,-252.5"/>
<text text-anchor="start" x="492" y="-263.9" font-family="Arial" font-size="14.00" fill="#000000">is_superuser </text>
<text text-anchor="start" x="576.014" y="-263.9" font-family="Arial" font-size="14.00" fill="#666666">[bool]</text>
<polygon fill="none" stroke="#000000" points="485,-222.5 485,-252.5 655,-252.5 655,-222.5 485,-222.5"/>
<text text-anchor="start" x="492" y="-233.9" font-family="Arial" font-size="14.00" fill="#000000">username </text>
<text text-anchor="start" x="558.1248" y="-233.9" font-family="Arial" font-size="14.00" fill="#666666">[varchar(150)]</text>
<polygon fill="none" stroke="#000000" points="485,-192.5 485,-222.5 655,-222.5 655,-192.5 485,-192.5"/>
<text text-anchor="start" x="492" y="-203.9" font-family="Arial" font-size="14.00" fill="#000000">last_name </text>
<text text-anchor="start" x="560.4614" y="-203.9" font-family="Arial" font-size="14.00" fill="#666666">[varchar(150)]</text>
<polygon fill="none" stroke="#000000" points="485,-162.5 485,-192.5 655,-192.5 655,-162.5 485,-162.5"/>
<text text-anchor="start" x="492" y="-173.9" font-family="Arial" font-size="14.00" fill="#000000">email </text>
<text text-anchor="start" x="529.3296" y="-173.9" font-family="Arial" font-size="14.00" fill="#666666">[varchar(254)]</text>
<polygon fill="none" stroke="#000000" points="485,-132.5 485,-162.5 655,-162.5 655,-132.5 485,-132.5"/>
<text text-anchor="start" x="492" y="-143.9" font-family="Arial" font-size="14.00" fill="#000000">is_staff </text>
<text text-anchor="start" x="540.2342" y="-143.9" font-family="Arial" font-size="14.00" fill="#666666">[bool]</text>
<polygon fill="none" stroke="#000000" points="485,-102.5 485,-132.5 655,-132.5 655,-102.5 485,-102.5"/>
<text text-anchor="start" x="492" y="-113.9" font-family="Arial" font-size="14.00" fill="#000000">is_active </text>
<text text-anchor="start" x="550.3422" y="-113.9" font-family="Arial" font-size="14.00" fill="#666666">[bool]</text>
<polygon fill="none" stroke="#000000" points="485,-72.5 485,-102.5 655,-102.5 655,-72.5 485,-72.5"/>
<text text-anchor="start" x="492" y="-83.9" font-family="Arial" font-size="14.00" fill="#000000">date_joined </text>
<text text-anchor="start" x="568.2552" y="-83.9" font-family="Arial" font-size="14.00" fill="#666666">[datetime]</text>
<polygon fill="none" stroke="#000000" points="485,-42.5 485,-72.5 655,-72.5 655,-42.5 485,-42.5"/>
<text text-anchor="start" x="491.8254" y="-53.9" font-family="Arial" font-size="14.00" fill="#000000">first_name </text>
<text text-anchor="start" x="561.0554" y="-53.9" font-family="Arial" font-size="14.00" fill="#666666">[varchar(150)]</text>
</g>
<!-- auth_user_user_permissions&#45;&gt;auth_user -->
<g id="edge1" class="edge">
<title>auth_user_user_permissions:user_id&#45;&gt;auth_user:id</title>
<path fill="none" stroke="#000000" d="M556.8265,-575.9415C530.2989,-566.5727 546.7699,-517.1333 567,-487 590.5538,-451.9158 631.4462,-486.0842 655,-451 678.1626,-416.4985 696.5556,-357.5 655,-357.5"/>
<polygon fill="#000000" stroke="#000000" points="557.1153,-575.9856 566.3185,-581.9481 562.0577,-576.7428 567,-577.5 567,-577.5 567,-577.5 562.0577,-576.7428 567.6815,-573.0519 557.1153,-575.9856 557.1153,-575.9856"/>
<text text-anchor="start" x="7.333" y="-587.5" font-family="Arial" font-size="10.00" fill="#000000">FOREIGN KEY (user_id) REFERENCES auth_user (id) ON UPDATE NO ACTION ON DELETE NO ACTION MATCH NONE</text>
</g>
<!-- auth_permission -->
<g id="node3" class="node">
<title>auth_permission</title>
<polygon fill="#efefef" stroke="transparent" points="759,-267.5 759,-302.5 947,-302.5 947,-267.5 759,-267.5"/>
<polygon fill="none" stroke="#000000" points="759,-267.5 759,-302.5 947,-302.5 947,-267.5 759,-267.5"/>
<text text-anchor="start" x="765.9793" y="-280.3" font-family="Arial Bold" font-size="18.00" fill="#000000">auth_permission</text>
<text text-anchor="start" x="898.0039" y="-280.3" font-family="Arial" font-size="14.00" fill="#000000"> </text>
<text text-anchor="start" x="901.8945" y="-280.3" font-family="Arial" font-size="14.00" fill="#666666">[table]</text>
<polygon fill="none" stroke="#000000" points="759,-237.5 759,-267.5 947,-267.5 947,-237.5 759,-237.5"/>
<text text-anchor="start" x="766" y="-248.9" font-family="Arial" font-size="14.00" fill="#000000">id </text>
<text text-anchor="start" x="780.7798" y="-248.9" font-family="Arial" font-size="14.00" fill="#666666">[integer]</text>
<polygon fill="none" stroke="#000000" points="759,-207.5 759,-237.5 947,-237.5 947,-207.5 759,-207.5"/>
<text text-anchor="start" x="766" y="-218.9" font-family="Arial" font-size="14.00" fill="#000000">content_type_id </text>
<text text-anchor="start" x="868.7124" y="-218.9" font-family="Arial" font-size="14.00" fill="#666666">[integer]</text>
<polygon fill="none" stroke="#000000" points="759,-177.5 759,-207.5 947,-207.5 947,-177.5 759,-177.5"/>
<text text-anchor="start" x="766" y="-188.9" font-family="Arial" font-size="14.00" fill="#000000">codename </text>
<text text-anchor="start" x="835.2468" y="-188.9" font-family="Arial" font-size="14.00" fill="#666666">[varchar(100)]</text>
<polygon fill="none" stroke="#000000" points="759,-147.5 759,-177.5 947,-177.5 947,-147.5 759,-147.5"/>
<text text-anchor="start" x="766" y="-158.9" font-family="Arial" font-size="14.00" fill="#000000">name </text>
<text text-anchor="start" x="804.899" y="-158.9" font-family="Arial" font-size="14.00" fill="#666666">[varchar(255)]</text>
</g>
<!-- auth_user_user_permissions&#45;&gt;auth_permission -->
<g id="edge2" class="edge">
<title>auth_user_user_permissions:permission_id&#45;&gt;auth_permission:id</title>
<path fill="none" stroke="#000000" d="M863.7783,-544.8849C874.9443,-536.3306 860.5662,-508.497 854,-487 831.926,-414.7327 781.074,-418.2673 759,-346 746.8606,-306.2571 717.4444,-252.5 759,-252.5"/>
<polygon fill="#000000" stroke="#000000" points="863.6605,-544.9163 852.8373,-543.1528 858.8302,-546.2081 854,-547.5 854,-547.5 854,-547.5 858.8302,-546.2081 855.1627,-551.8472 863.6605,-544.9163 863.6605,-544.9163"/>
<text text-anchor="start" x="861.448" y="-557.5" font-family="Arial" font-size="10.00" fill="#000000">FOREIGN KEY (permission_id) REFERENCES auth_permission (id) ON UPDATE NO ACTION ON DELETE NO ACTION MATCH NONE</text>
</g>
</g>
</svg>
