<?xml version="1.0" encoding="UTF-8" standalone="no"?>
<!DOCTYPE svg PUBLIC "-//W3C//DTD SVG 1.1//EN"
 "http://www.w3.org/Graphics/SVG/1.1/DTD/svg11.dtd">
<!-- Generated by graphviz version 2.40.1 (20161225.0304)
 -->
<!-- Title: auth_user Pages: 1 -->
<svg width="1637pt" height="862pt"
 viewBox="0.00 0.00 1637.00 862.00" xmlns="http://www.w3.org/2000/svg" xmlns:xlink="http://www.w3.org/1999/xlink">
<g id="graph0" class="graph" transform="scale(1 1) rotate(0) translate(4 858)">
<title>auth_user</title>
<polygon fill="#ffffff" stroke="transparent" points="-4,4 -4,-858 1633,-858 1633,4 -4,4"/>
<!-- auth_user -->
<g id="node1" class="node">
<title>auth_user</title>
<polygon fill="#efefef" stroke="transparent" points="730,-375.5 730,-410.5 900,-410.5 900,-375.5 730,-375.5"/>
<polygon fill="none" stroke="#000000" points="730,-375.5 730,-410.5 900,-410.5 900,-375.5 730,-375.5"/>
<text text-anchor="start" x="753.9758" y="-388.3" font-family="Arial Bold" font-size="18.00" fill="#000000">auth_user</text>
<text text-anchor="start" x="834.0074" y="-388.3" font-family="Arial" font-size="14.00" fill="#000000"> </text>
<text text-anchor="start" x="837.898" y="-388.3" font-family="Arial" font-size="14.00" fill="#666666">[table]</text>
<polygon fill="none" stroke="#000000" points="730,-345.5 730,-375.5 900,-375.5 900,-345.5 730,-345.5"/>
<text text-anchor="start" x="737" y="-356.9" font-family="Arial" font-size="14.00" fill="#000000">id </text>
<text text-anchor="start" x="751.7798" y="-356.9" font-family="Arial" font-size="14.00" fill="#666666">[integer]</text>
<polygon fill="none" stroke="#000000" points="730,-315.5 730,-345.5 900,-345.5 900,-315.5 730,-315.5"/>
<text text-anchor="start" x="737" y="-326.9" font-family="Arial" font-size="14.00" fill="#000000">password </text>
<text text-anchor="start" x="800.7882" y="-326.9" font-family="Arial" font-size="14.00" fill="#666666">[varchar(128)]</text>
<polygon fill="none" stroke="#000000" points="730,-285.5 730,-315.5 900,-315.5 900,-285.5 730,-285.5"/>
<text text-anchor="start" x="737" y="-296.9" font-family="Arial" font-size="14.00" fill="#000000">last_login </text>
<text text-anchor="start" x="800.014" y="-296.9" font-family="Arial" font-size="14.00" fill="#666666">[datetime]</text>
<polygon fill="none" stroke="#000000" points="730,-255.5 730,-285.5 900,-285.5 900,-255.5 730,-255.5"/>
<text text-anchor="start" x="737" y="-266.9" font-family="Arial" font-size="14.00" fill="#000000">is_superuser </text>
<text text-anchor="start" x="821.014" y="-266.9" font-family="Arial" font-size="14.00" fill="#666666">[bool]</text>
<polygon fill="none" stroke="#000000" points="730,-225.5 730,-255.5 900,-255.5 900,-225.5 730,-225.5"/>
<text text-anchor="start" x="737" y="-236.9" font-family="Arial" font-size="14.00" fill="#000000">username </text>
<text text-anchor="start" x="803.1248" y="-236.9" font-family="Arial" font-size="14.00" fill="#666666">[varchar(150)]</text>
<polygon fill="none" stroke="#000000" points="730,-195.5 730,-225.5 900,-225.5 900,-195.5 730,-195.5"/>
<text text-anchor="start" x="737" y="-206.9" font-family="Arial" font-size="14.00" fill="#000000">last_name </text>
<text text-anchor="start" x="805.4614" y="-206.9" font-family="Arial" font-size="14.00" fill="#666666">[varchar(150)]</text>
<polygon fill="none" stroke="#000000" points="730,-165.5 730,-195.5 900,-195.5 900,-165.5 730,-165.5"/>
<text text-anchor="start" x="737" y="-176.9" font-family="Arial" font-size="14.00" fill="#000000">email </text>
<text text-anchor="start" x="774.3296" y="-176.9" font-family="Arial" font-size="14.00" fill="#666666">[varchar(254)]</text>
<polygon fill="none" stroke="#000000" points="730,-135.5 730,-165.5 900,-165.5 900,-135.5 730,-135.5"/>
<text text-anchor="start" x="737" y="-146.9" font-family="Arial" font-size="14.00" fill="#000000">is_staff </text>
<text text-anchor="start" x="785.2342" y="-146.9" font-family="Arial" font-size="14.00" fill="#666666">[bool]</text>
<polygon fill="none" stroke="#000000" points="730,-105.5 730,-135.5 900,-135.5 900,-105.5 730,-105.5"/>
<text text-anchor="start" x="737" y="-116.9" font-family="Arial" font-size="14.00" fill="#000000">is_active </text>
<text text-anchor="start" x="795.3422" y="-116.9" font-family="Arial" font-size="14.00" fill="#666666">[bool]</text>
<polygon fill="none" stroke="#000000" points="730,-75.5 730,-105.5 900,-105.5 900,-75.5 730,-75.5"/>
<text text-anchor="start" x="737" y="-86.9" font-family="Arial" font-size="14.00" fill="#000000">date_joined </text>
<text text-anchor="start" x="813.2552" y="-86.9" font-family="Arial" font-size="14.00" fill="#666666">[datetime]</text>
<polygon fill="none" stroke="#000000" points="730,-45.5 730,-75.5 900,-75.5 900,-45.5 730,-45.5"/>
<text text-anchor="start" x="736.8254" y="-56.9" font-family="Arial" font-size="14.00" fill="#000000">first_name </text>
<text text-anchor="start" x="806.0554" y="-56.9" font-family="Arial" font-size="14.00" fill="#666666">[varchar(150)]</text>
<polygon fill="none" stroke="#000000" stroke-width="3" points="728.5,-44.5 728.5,-412.5 901.5,-412.5 901.5,-44.5 728.5,-44.5"/>
</g>
<!-- auth_user_groups -->
<g id="node2" class="node">
<title>auth_user_groups</title>
<polygon fill="#efefef" stroke="transparent" points="366,-700.5 366,-735.5 567,-735.5 567,-700.5 366,-700.5"/>
<polygon fill="none" stroke="#000000" points="366,-700.5 366,-735.5 567,-735.5 567,-700.5 366,-700.5"/>
<text text-anchor="start" x="372.9642" y="-713.3" font-family="Arial Bold" font-size="18.00" fill="#000000">auth_user_groups</text>
<text text-anchor="start" x="518.019" y="-713.3" font-family="Arial" font-size="14.00" fill="#000000"> </text>
<text text-anchor="start" x="521.9096" y="-713.3" font-family="Arial" font-size="14.00" fill="#666666">[table]</text>
<polygon fill="none" stroke="#000000" points="366,-670.5 366,-700.5 567,-700.5 567,-670.5 366,-670.5"/>
<text text-anchor="start" x="373" y="-681.9" font-family="Arial" font-size="14.00" fill="#000000">id </text>
<text text-anchor="start" x="387.7798" y="-681.9" font-family="Arial" font-size="14.00" fill="#666666">[integer]</text>
<polygon fill="none" stroke="#000000" points="366,-640.5 366,-670.5 567,-670.5 567,-640.5 366,-640.5"/>
<text text-anchor="start" x="373" y="-651.9" font-family="Arial" font-size="14.00" fill="#000000">user_id </text>
<text text-anchor="start" x="422.7882" y="-651.9" font-family="Arial" font-size="14.00" fill="#666666">[integer]</text>
<polygon fill="none" stroke="#000000" points="366,-610.5 366,-640.5 567,-640.5 567,-610.5 366,-610.5"/>
<text text-anchor="start" x="373" y="-621.9" font-family="Arial" font-size="14.00" fill="#000000">group_id </text>
<text text-anchor="start" x="431.3534" y="-621.9" font-family="Arial" font-size="14.00" fill="#666666">[integer]</text>
</g>
<!-- auth_user_groups&#45;&gt;auth_user -->
<g id="edge1" class="edge">
<title>auth_user_groups:user_id&#45;&gt;auth_user:id</title>
<path fill="none" stroke="#000000" d="M577.1365,-654.8268C636.9538,-646.1788 583.2966,-556.0841 618,-493 655.1659,-425.4395 652.8915,-360.5 730,-360.5"/>
<polygon fill="#000000" stroke="#000000" points="576.978,-654.8372 566.7017,-651.0099 571.989,-655.1686 567,-655.5 567,-655.5 567,-655.5 571.989,-655.1686 567.2983,-659.9901 576.978,-654.8372 576.978,-654.8372"/>
<text text-anchor="start" x="7.333" y="-665.5" font-family="Arial" font-size="10.00" fill="#000000">FOREIGN KEY (user_id) REFERENCES auth_user (id) ON UPDATE NO ACTION ON DELETE NO ACTION MATCH NONE</text>
</g>
<!-- auth_user_user_permissions -->
<g id="node3" class="node">
<title>auth_user_user_permissions</title>
<polygon fill="#efefef" stroke="transparent" points="671,-700.5 671,-735.5 958,-735.5 958,-700.5 671,-700.5"/>
<polygon fill="none" stroke="#000000" points="671,-700.5 671,-735.5 958,-735.5 958,-700.5 671,-700.5"/>
<text text-anchor="start" x="677.9685" y="-713.3" font-family="Arial Bold" font-size="18.00" fill="#000000">auth_user_user_permissions</text>
<text text-anchor="start" x="909.0147" y="-713.3" font-family="Arial" font-size="14.00" fill="#000000"> </text>
<text text-anchor="start" x="912.9053" y="-713.3" font-family="Arial" font-size="14.00" fill="#666666">[table]</text>
<polygon fill="none" stroke="#000000" points="671,-670.5 671,-700.5 958,-700.5 958,-670.5 671,-670.5"/>
<text text-anchor="start" x="678" y="-681.9" font-family="Arial" font-size="14.00" fill="#000000">id </text>
<text text-anchor="start" x="692.7798" y="-681.9" font-family="Arial" font-size="14.00" fill="#666666">[integer]</text>
<polygon fill="none" stroke="#000000" points="671,-640.5 671,-670.5 958,-670.5 958,-640.5 671,-640.5"/>
<text text-anchor="start" x="678" y="-651.9" font-family="Arial" font-size="14.00" fill="#000000">user_id </text>
<text text-anchor="start" x="727.7882" y="-651.9" font-family="Arial" font-size="14.00" fill="#666666">[integer]</text>
<polygon fill="none" stroke="#000000" points="671,-610.5 671,-640.5 958,-640.5 958,-610.5 671,-610.5"/>
<text text-anchor="start" x="678" y="-621.9" font-family="Arial" font-size="14.00" fill="#000000">permission_id </text>
<text text-anchor="start" x="768.2272" y="-621.9" font-family="Arial" font-size="14.00" fill="#666666">[integer]</text>
</g>
<!-- auth_user_user_permissions&#45;&gt;auth_user -->
<g id="edge2" class="edge">
<title>auth_user_user_permissions:user_id&#45;&gt;auth_user:id</title>
<path fill="none" stroke="#000000" d="M968.1376,-653.8924C993.1537,-644.6464 976.5256,-597.6235 958,-568 898.2415,-472.443 789.7585,-552.557 730,-457 707.2593,-420.6363 687.1111,-360.5 730,-360.5"/>
<polygon fill="#000000" stroke="#000000" points="967.8766,-653.9337 957.2952,-651.0555 962.9383,-654.7168 958,-655.5 958,-655.5 958,-655.5 962.9383,-654.7168 958.7048,-659.9445 967.8766,-653.9337 967.8766,-653.9337"/>
<text text-anchor="start" x="681.833" y="-639.5" font-family="Arial" font-size="10.00" fill="#000000">FOREIGN KEY (user_id) REFERENCES auth_user (id) ON UPDATE NO ACTION ON DELETE NO ACTION MATCH NONE</text>
</g>
<!-- django_admin_log -->
<g id="node4" class="node">
<title>django_admin_log</title>
<polygon fill="#efefef" stroke="transparent" points="1062,-775.5 1062,-810.5 1265,-810.5 1265,-775.5 1062,-775.5"/>
<polygon fill="none" stroke="#000000" points="1062,-775.5 1062,-810.5 1265,-810.5 1265,-775.5 1062,-775.5"/>
<text text-anchor="start" x="1068.967" y="-788.3" font-family="Arial Bold" font-size="18.00" fill="#000000">django_admin_log</text>
<text text-anchor="start" x="1216.0162" y="-788.3" font-family="Arial" font-size="14.00" fill="#000000"> </text>
<text text-anchor="start" x="1219.9068" y="-788.3" font-family="Arial" font-size="14.00" fill="#666666">[table]</text>
<polygon fill="none" stroke="#000000" points="1062,-745.5 1062,-775.5 1265,-775.5 1265,-745.5 1062,-745.5"/>
<text text-anchor="start" x="1069" y="-756.9" font-family="Arial" font-size="14.00" fill="#000000">id </text>
<text text-anchor="start" x="1083.7798" y="-756.9" font-family="Arial" font-size="14.00" fill="#666666">[integer]</text>
<polygon fill="none" stroke="#000000" points="1062,-715.5 1062,-745.5 1265,-745.5 1265,-715.5 1062,-715.5"/>
<text text-anchor="start" x="1069" y="-726.9" font-family="Arial" font-size="14.00" fill="#000000">action_time </text>
<text text-anchor="start" x="1144.4586" y="-726.9" font-family="Arial" font-size="14.00" fill="#666666">[datetime]</text>
<polygon fill="none" stroke="#000000" points="1062,-685.5 1062,-715.5 1265,-715.5 1265,-685.5 1062,-685.5"/>
<text text-anchor="start" x="1069" y="-696.9" font-family="Arial" font-size="14.00" fill="#000000">object_id </text>
<text text-anchor="start" x="1128.9074" y="-696.9" font-family="Arial" font-size="14.00" fill="#666666">[text]</text>
<polygon fill="none" stroke="#000000" points="1062,-655.5 1062,-685.5 1265,-685.5 1265,-655.5 1062,-655.5"/>
<text text-anchor="start" x="1069" y="-666.9" font-family="Arial" font-size="14.00" fill="#000000">object_repr </text>
<text text-anchor="start" x="1142.9046" y="-666.9" font-family="Arial" font-size="14.00" fill="#666666">[varchar(200)]</text>
<polygon fill="none" stroke="#000000" points="1062,-625.5 1062,-655.5 1265,-655.5 1265,-625.5 1062,-625.5"/>
<text text-anchor="start" x="1069" y="-636.9" font-family="Arial" font-size="14.00" fill="#000000">change_message </text>
<text text-anchor="start" x="1183.3772" y="-636.9" font-family="Arial" font-size="14.00" fill="#666666">[text]</text>
<polygon fill="none" stroke="#000000" points="1062,-595.5 1062,-625.5 1265,-625.5 1265,-595.5 1062,-595.5"/>
<text text-anchor="start" x="1069" y="-606.9" font-family="Arial" font-size="14.00" fill="#000000">content_type_id </text>
<text text-anchor="start" x="1171.7124" y="-606.9" font-family="Arial" font-size="14.00" fill="#666666">[integer]</text>
<polygon fill="none" stroke="#000000" points="1062,-565.5 1062,-595.5 1265,-595.5 1265,-565.5 1062,-565.5"/>
<text text-anchor="start" x="1069" y="-576.9" font-family="Arial" font-size="14.00" fill="#000000">user_id </text>
<text text-anchor="start" x="1118.7882" y="-576.9" font-family="Arial" font-size="14.00" fill="#666666">[integer]</text>
<polygon fill="none" stroke="#000000" points="1062,-535.5 1062,-565.5 1265,-565.5 1265,-535.5 1062,-535.5"/>
<text text-anchor="start" x="1069" y="-546.9" font-family="Arial" font-size="14.00" fill="#000000">action_flag </text>
<text text-anchor="start" x="1140.5806" y="-546.9" font-family="Arial" font-size="14.00" fill="#666666">[smallint unsigned]</text>
</g>
<!-- django_admin_log&#45;&gt;auth_user -->
<g id="edge3" class="edge">
<title>django_admin_log:user_id&#45;&gt;auth_user:id</title>
<path fill="none" stroke="#000000" d="M1051.6977,-579.421C1019.7476,-571.9139 1033.842,-526.7847 1010,-493 965.8695,-430.4659 976.5377,-360.5 900,-360.5"/>
<polygon fill="#000000" stroke="#000000" points="1052.0544,-579.4582 1061.5312,-584.9755 1057.0272,-579.9791 1062,-580.5 1062,-580.5 1062,-580.5 1057.0272,-579.9791 1062.4688,-576.0245 1052.0544,-579.4582 1052.0544,-579.4582"/>
<text text-anchor="start" x="1069.333" y="-590.5" font-family="Arial" font-size="10.00" fill="#000000">FOREIGN KEY (user_id) REFERENCES auth_user (id) ON UPDATE NO ACTION ON DELETE NO ACTION MATCH NONE</text>
</g>
</g>
</svg>
