<?xml version="1.0" encoding="UTF-8" standalone="no"?>
<!DOCTYPE svg PUBLIC "-//W3C//DTD SVG 1.1//EN"
 "http://www.w3.org/Graphics/SVG/1.1/DTD/svg11.dtd">
<!-- Generated by graphviz version 2.40.1 (20161225.0304)
 -->
<!-- Title: auth_user_groups Pages: 1 -->
<svg width="1355pt" height="712pt"
 viewBox="0.00 0.00 1355.00 712.00" xmlns="http://www.w3.org/2000/svg" xmlns:xlink="http://www.w3.org/1999/xlink">
<g id="graph0" class="graph" transform="scale(1 1) rotate(0) translate(4 708)">
<title>auth_user_groups</title>
<polygon fill="#ffffff" stroke="transparent" points="-4,4 -4,-708 1351,-708 1351,4 -4,4"/>
<!-- auth_user_groups -->
<g id="node1" class="node">
<title>auth_user_groups</title>
<polygon fill="#efefef" stroke="transparent" points="567,-622.5 567,-657.5 768,-657.5 768,-622.5 567,-622.5"/>
<polygon fill="none" stroke="#000000" points="567,-622.5 567,-657.5 768,-657.5 768,-622.5 567,-622.5"/>
<text text-anchor="start" x="573.9642" y="-635.3" font-family="Arial Bold" font-size="18.00" fill="#000000">auth_user_groups</text>
<text text-anchor="start" x="719.019" y="-635.3" font-family="Arial" font-size="14.00" fill="#000000"> </text>
<text text-anchor="start" x="722.9096" y="-635.3" font-family="Arial" font-size="14.00" fill="#666666">[table]</text>
<polygon fill="none" stroke="#000000" points="567,-592.5 567,-622.5 768,-622.5 768,-592.5 567,-592.5"/>
<text text-anchor="start" x="574" y="-603.9" font-family="Arial" font-size="14.00" fill="#000000">id </text>
<text text-anchor="start" x="588.7798" y="-603.9" font-family="Arial" font-size="14.00" fill="#666666">[integer]</text>
<polygon fill="none" stroke="#000000" points="567,-562.5 567,-592.5 768,-592.5 768,-562.5 567,-562.5"/>
<text text-anchor="start" x="574" y="-573.9" font-family="Arial" font-size="14.00" fill="#000000">user_id </text>
<text text-anchor="start" x="623.7882" y="-573.9" font-family="Arial" font-size="14.00" fill="#666666">[integer]</text>
<polygon fill="none" stroke="#000000" points="567,-532.5 567,-562.5 768,-562.5 768,-532.5 567,-532.5"/>
<text text-anchor="start" x="574" y="-543.9" font-family="Arial" font-size="14.00" fill="#000000">group_id </text>
<text text-anchor="start" x="632.3534" y="-543.9" font-family="Arial" font-size="14.00" fill="#666666">[integer]</text>
<polygon fill="none" stroke="#000000" stroke-width="3" points="565,-531.5 565,-659.5 769,-659.5 769,-531.5 565,-531.5"/>
</g>
<!-- auth_user -->
<g id="node2" class="node">
<title>auth_user</title>
<polygon fill="#efefef" stroke="transparent" points="451,-372.5 451,-407.5 621,-407.5 621,-372.5 451,-372.5"/>
<polygon fill="none" stroke="#000000" points="451,-372.5 451,-407.5 621,-407.5 621,-372.5 451,-372.5"/>
<text text-anchor="start" x="474.9758" y="-385.3" font-family="Arial Bold" font-size="18.00" fill="#000000">auth_user</text>
<text text-anchor="start" x="555.0074" y="-385.3" font-family="Arial" font-size="14.00" fill="#000000"> </text>
<text text-anchor="start" x="558.898" y="-385.3" font-family="Arial" font-size="14.00" fill="#666666">[table]</text>
<polygon fill="none" stroke="#000000" points="451,-342.5 451,-372.5 621,-372.5 621,-342.5 451,-342.5"/>
<text text-anchor="start" x="458" y="-353.9" font-family="Arial" font-size="14.00" fill="#000000">id </text>
<text text-anchor="start" x="472.7798" y="-353.9" font-family="Arial" font-size="14.00" fill="#666666">[integer]</text>
<polygon fill="none" stroke="#000000" points="451,-312.5 451,-342.5 621,-342.5 621,-312.5 451,-312.5"/>
<text text-anchor="start" x="458" y="-323.9" font-family="Arial" font-size="14.00" fill="#000000">password </text>
<text text-anchor="start" x="521.7882" y="-323.9" font-family="Arial" font-size="14.00" fill="#666666">[varchar(128)]</text>
<polygon fill="none" stroke="#000000" points="451,-282.5 451,-312.5 621,-312.5 621,-282.5 451,-282.5"/>
<text text-anchor="start" x="458" y="-293.9" font-family="Arial" font-size="14.00" fill="#000000">last_login </text>
<text text-anchor="start" x="521.014" y="-293.9" font-family="Arial" font-size="14.00" fill="#666666">[datetime]</text>
<polygon fill="none" stroke="#000000" points="451,-252.5 451,-282.5 621,-282.5 621,-252.5 451,-252.5"/>
<text text-anchor="start" x="458" y="-263.9" font-family="Arial" font-size="14.00" fill="#000000">is_superuser </text>
<text text-anchor="start" x="542.014" y="-263.9" font-family="Arial" font-size="14.00" fill="#666666">[bool]</text>
<polygon fill="none" stroke="#000000" points="451,-222.5 451,-252.5 621,-252.5 621,-222.5 451,-222.5"/>
<text text-anchor="start" x="458" y="-233.9" font-family="Arial" font-size="14.00" fill="#000000">username </text>
<text text-anchor="start" x="524.1248" y="-233.9" font-family="Arial" font-size="14.00" fill="#666666">[varchar(150)]</text>
<polygon fill="none" stroke="#000000" points="451,-192.5 451,-222.5 621,-222.5 621,-192.5 451,-192.5"/>
<text text-anchor="start" x="458" y="-203.9" font-family="Arial" font-size="14.00" fill="#000000">last_name </text>
<text text-anchor="start" x="526.4614" y="-203.9" font-family="Arial" font-size="14.00" fill="#666666">[varchar(150)]</text>
<polygon fill="none" stroke="#000000" points="451,-162.5 451,-192.5 621,-192.5 621,-162.5 451,-162.5"/>
<text text-anchor="start" x="458" y="-173.9" font-family="Arial" font-size="14.00" fill="#000000">email </text>
<text text-anchor="start" x="495.3296" y="-173.9" font-family="Arial" font-size="14.00" fill="#666666">[varchar(254)]</text>
<polygon fill="none" stroke="#000000" points="451,-132.5 451,-162.5 621,-162.5 621,-132.5 451,-132.5"/>
<text text-anchor="start" x="458" y="-143.9" font-family="Arial" font-size="14.00" fill="#000000">is_staff </text>
<text text-anchor="start" x="506.2342" y="-143.9" font-family="Arial" font-size="14.00" fill="#666666">[bool]</text>
<polygon fill="none" stroke="#000000" points="451,-102.5 451,-132.5 621,-132.5 621,-102.5 451,-102.5"/>
<text text-anchor="start" x="458" y="-113.9" font-family="Arial" font-size="14.00" fill="#000000">is_active </text>
<text text-anchor="start" x="516.3422" y="-113.9" font-family="Arial" font-size="14.00" fill="#666666">[bool]</text>
<polygon fill="none" stroke="#000000" points="451,-72.5 451,-102.5 621,-102.5 621,-72.5 451,-72.5"/>
<text text-anchor="start" x="458" y="-83.9" font-family="Arial" font-size="14.00" fill="#000000">date_joined </text>
<text text-anchor="start" x="534.2552" y="-83.9" font-family="Arial" font-size="14.00" fill="#666666">[datetime]</text>
<polygon fill="none" stroke="#000000" points="451,-42.5 451,-72.5 621,-72.5 621,-42.5 451,-42.5"/>
<text text-anchor="start" x="457.8254" y="-53.9" font-family="Arial" font-size="14.00" fill="#000000">first_name </text>
<text text-anchor="start" x="527.0554" y="-53.9" font-family="Arial" font-size="14.00" fill="#666666">[varchar(150)]</text>
</g>
<!-- auth_user_groups&#45;&gt;auth_user -->
<g id="edge1" class="edge">
<title>auth_user_groups:user_id&#45;&gt;auth_user:id</title>
<path fill="none" stroke="#000000" d="M556.9153,-575.9949C530.9052,-566.9372 549.8743,-518.9997 567,-487 580.6105,-461.5686 607.3895,-476.4314 621,-451 640.6083,-414.3615 662.5556,-357.5 621,-357.5"/>
<polygon fill="#000000" stroke="#000000" points="557.1095,-576.0238 566.3357,-581.9507 562.0548,-576.7619 567,-577.5 567,-577.5 567,-577.5 562.0548,-576.7619 567.6643,-573.0493 557.1095,-576.0238 557.1095,-576.0238"/>
<text text-anchor="start" x="7.333" y="-587.5" font-family="Arial" font-size="10.00" fill="#000000">FOREIGN KEY (user_id) REFERENCES auth_user (id) ON UPDATE NO ACTION ON DELETE NO ACTION MATCH NONE</text>
</g>
<!-- auth_group -->
<g id="node3" class="node">
<title>auth_group</title>
<polygon fill="#efefef" stroke="transparent" points="726,-237.5 726,-272.5 873,-272.5 873,-237.5 726,-237.5"/>
<polygon fill="none" stroke="#000000" points="726,-237.5 726,-272.5 873,-272.5 873,-237.5 726,-237.5"/>
<text text-anchor="start" x="732.9696" y="-250.3" font-family="Arial Bold" font-size="18.00" fill="#000000">auth_group</text>
<text text-anchor="start" x="824.0136" y="-250.3" font-family="Arial" font-size="14.00" fill="#000000"> </text>
<text text-anchor="start" x="827.9042" y="-250.3" font-family="Arial" font-size="14.00" fill="#666666">[table]</text>
<polygon fill="none" stroke="#000000" points="726,-207.5 726,-237.5 873,-237.5 873,-207.5 726,-207.5"/>
<text text-anchor="start" x="733" y="-218.9" font-family="Arial" font-size="14.00" fill="#000000">id </text>
<text text-anchor="start" x="747.7798" y="-218.9" font-family="Arial" font-size="14.00" fill="#666666">[integer]</text>
<polygon fill="none" stroke="#000000" points="726,-177.5 726,-207.5 873,-207.5 873,-177.5 726,-177.5"/>
<text text-anchor="start" x="733" y="-188.9" font-family="Arial" font-size="14.00" fill="#000000">name </text>
<text text-anchor="start" x="771.899" y="-188.9" font-family="Arial" font-size="14.00" fill="#666666">[varchar(150)]</text>
</g>
<!-- auth_user_groups&#45;&gt;auth_group -->
<g id="edge2" class="edge">
<title>auth_user_groups:group_id&#45;&gt;auth_group:id</title>
<path fill="none" stroke="#000000" d="M778.1835,-546.8821C897.0294,-531.2056 584.0524,-222.5 726,-222.5"/>
<polygon fill="#000000" stroke="#000000" points="777.9816,-546.8942 767.7274,-543.0083 772.9908,-547.1971 768,-547.5 768,-547.5 768,-547.5 772.9908,-547.1971 768.2726,-551.9917 777.9816,-546.8942 777.9816,-546.8942"/>
<text text-anchor="start" x="775.215" y="-557.5" font-family="Arial" font-size="10.00" fill="#000000">FOREIGN KEY (group_id) REFERENCES auth_group (id) ON UPDATE NO ACTION ON DELETE NO ACTION MATCH NONE</text>
</g>
</g>
</svg>
