<?xml version="1.0" encoding="UTF-8" standalone="no"?>
<!DOCTYPE svg PUBLIC "-//W3C//DTD SVG 1.1//EN"
 "http://www.w3.org/Graphics/SVG/1.1/DTD/svg11.dtd">
<!-- Generated by graphviz version 2.40.1 (20161225.0304)
 -->
<!-- Title: auth_permission Pages: 1 -->
<svg width="1423pt" height="749pt"
 viewBox="0.00 0.00 1423.00 749.00" xmlns="http://www.w3.org/2000/svg" xmlns:xlink="http://www.w3.org/1999/xlink">
<g id="graph0" class="graph" transform="scale(1 1) rotate(0) translate(4 745)">
<title>auth_permission</title>
<polygon fill="#ffffff" stroke="transparent" points="-4,4 -4,-745 1419,-745 1419,4 -4,4"/>
<!-- auth_permission -->
<g id="node1" class="node">
<title>auth_permission</title>
<polygon fill="#efefef" stroke="transparent" points="653,-412.5 653,-447.5 841,-447.5 841,-412.5 653,-412.5"/>
<polygon fill="none" stroke="#000000" points="653,-412.5 653,-447.5 841,-447.5 841,-412.5 653,-412.5"/>
<text text-anchor="start" x="659.9793" y="-425.3" font-family="Arial Bold" font-size="18.00" fill="#000000">auth_permission</text>
<text text-anchor="start" x="792.0039" y="-425.3" font-family="Arial" font-size="14.00" fill="#000000"> </text>
<text text-anchor="start" x="795.8945" y="-425.3" font-family="Arial" font-size="14.00" fill="#666666">[table]</text>
<polygon fill="none" stroke="#000000" points="653,-382.5 653,-412.5 841,-412.5 841,-382.5 653,-382.5"/>
<text text-anchor="start" x="660" y="-393.9" font-family="Arial" font-size="14.00" fill="#000000">id </text>
<text text-anchor="start" x="674.7798" y="-393.9" font-family="Arial" font-size="14.00" fill="#666666">[integer]</text>
<polygon fill="none" stroke="#000000" points="653,-352.5 653,-382.5 841,-382.5 841,-352.5 653,-352.5"/>
<text text-anchor="start" x="660" y="-363.9" font-family="Arial" font-size="14.00" fill="#000000">content_type_id </text>
<text text-anchor="start" x="762.7124" y="-363.9" font-family="Arial" font-size="14.00" fill="#666666">[integer]</text>
<polygon fill="none" stroke="#000000" points="653,-322.5 653,-352.5 841,-352.5 841,-322.5 653,-322.5"/>
<text text-anchor="start" x="660" y="-333.9" font-family="Arial" font-size="14.00" fill="#000000">codename </text>
<text text-anchor="start" x="729.2468" y="-333.9" font-family="Arial" font-size="14.00" fill="#666666">[varchar(100)]</text>
<polygon fill="none" stroke="#000000" points="653,-292.5 653,-322.5 841,-322.5 841,-292.5 653,-292.5"/>
<text text-anchor="start" x="660" y="-303.9" font-family="Arial" font-size="14.00" fill="#000000">name </text>
<text text-anchor="start" x="698.899" y="-303.9" font-family="Arial" font-size="14.00" fill="#666666">[varchar(255)]</text>
<polygon fill="none" stroke="#000000" stroke-width="3" points="651.5,-291.5 651.5,-449.5 842.5,-449.5 842.5,-291.5 651.5,-291.5"/>
</g>
<!-- django_content_type -->
<g id="node4" class="node">
<title>django_content_type</title>
<polygon fill="#efefef" stroke="transparent" points="635,-132.5 635,-167.5 858,-167.5 858,-132.5 635,-132.5"/>
<polygon fill="none" stroke="#000000" points="635,-132.5 635,-167.5 858,-167.5 858,-132.5 635,-132.5"/>
<text text-anchor="start" x="641.9509" y="-145.3" font-family="Arial Bold" font-size="18.00" fill="#000000">django_content_type</text>
<text text-anchor="start" x="809.0323" y="-145.3" font-family="Arial" font-size="14.00" fill="#000000"> </text>
<text text-anchor="start" x="812.9229" y="-145.3" font-family="Arial" font-size="14.00" fill="#666666">[table]</text>
<polygon fill="none" stroke="#000000" points="635,-102.5 635,-132.5 858,-132.5 858,-102.5 635,-102.5"/>
<text text-anchor="start" x="642" y="-113.9" font-family="Arial" font-size="14.00" fill="#000000">id </text>
<text text-anchor="start" x="656.7798" y="-113.9" font-family="Arial" font-size="14.00" fill="#666666">[integer]</text>
<polygon fill="none" stroke="#000000" points="635,-72.5 635,-102.5 858,-102.5 858,-72.5 635,-72.5"/>
<text text-anchor="start" x="642" y="-83.9" font-family="Arial" font-size="14.00" fill="#000000">app_label </text>
<text text-anchor="start" x="706.582" y="-83.9" font-family="Arial" font-size="14.00" fill="#666666">[varchar(100)]</text>
<polygon fill="none" stroke="#000000" points="635,-42.5 635,-72.5 858,-72.5 858,-42.5 635,-42.5"/>
<text text-anchor="start" x="642" y="-53.9" font-family="Arial" font-size="14.00" fill="#000000">model </text>
<text text-anchor="start" x="684.0056" y="-53.9" font-family="Arial" font-size="14.00" fill="#666666">[varchar(100)]</text>
</g>
<!-- auth_permission&#45;&gt;django_content_type -->
<g id="edge3" class="edge">
<title>auth_permission:content_type_id&#45;&gt;django_content_type:id</title>
<path fill="none" stroke="#000000" d="M643.0174,-366.4234C602.1296,-356.8125 620.9151,-285.2103 653,-247 712.4859,-176.1575 798.5141,-281.8425 858,-211 884.7225,-179.1759 899.5556,-117.5 858,-117.5"/>
<polygon fill="#000000" stroke="#000000" points="643.0577,-366.4276 652.5174,-371.9741 648.0288,-366.9638 653,-367.5 653,-367.5 653,-367.5 648.0288,-366.9638 653.4826,-363.0259 643.0577,-366.4276 643.0577,-366.4276"/>
<text text-anchor="start" x="7.251" y="-377.5" font-family="Arial" font-size="10.00" fill="#000000">FOREIGN KEY (content_type_id) REFERENCES django_content_type (id) ON UPDATE NO ACTION ON DELETE NO ACTION MATCH NONE</text>
</g>
<!-- auth_group_permissions -->
<g id="node2" class="node">
<title>auth_group_permissions</title>
<polygon fill="#efefef" stroke="transparent" points="433,-662.5 433,-697.5 686,-697.5 686,-662.5 433,-662.5"/>
<polygon fill="none" stroke="#000000" points="433,-662.5 433,-697.5 686,-697.5 686,-662.5 433,-662.5"/>
<text text-anchor="start" x="439.9677" y="-675.3" font-family="Arial Bold" font-size="18.00" fill="#000000">auth_group_permissions</text>
<text text-anchor="start" x="637.0155" y="-675.3" font-family="Arial" font-size="14.00" fill="#000000"> </text>
<text text-anchor="start" x="640.9061" y="-675.3" font-family="Arial" font-size="14.00" fill="#666666">[table]</text>
<polygon fill="none" stroke="#000000" points="433,-632.5 433,-662.5 686,-662.5 686,-632.5 433,-632.5"/>
<text text-anchor="start" x="440" y="-643.9" font-family="Arial" font-size="14.00" fill="#000000">id </text>
<text text-anchor="start" x="454.7798" y="-643.9" font-family="Arial" font-size="14.00" fill="#666666">[integer]</text>
<polygon fill="none" stroke="#000000" points="433,-602.5 433,-632.5 686,-632.5 686,-602.5 433,-602.5"/>
<text text-anchor="start" x="440" y="-613.9" font-family="Arial" font-size="14.00" fill="#000000">group_id </text>
<text text-anchor="start" x="498.3534" y="-613.9" font-family="Arial" font-size="14.00" fill="#666666">[integer]</text>
<polygon fill="none" stroke="#000000" points="433,-572.5 433,-602.5 686,-602.5 686,-572.5 433,-572.5"/>
<text text-anchor="start" x="440" y="-583.9" font-family="Arial" font-size="14.00" fill="#000000">permission_id </text>
<text text-anchor="start" x="530.2272" y="-583.9" font-family="Arial" font-size="14.00" fill="#666666">[integer]</text>
</g>
<!-- auth_group_permissions&#45;&gt;auth_permission -->
<g id="edge1" class="edge">
<title>auth_group_permissions:permission_id&#45;&gt;auth_permission:id</title>
<path fill="none" stroke="#000000" d="M695.7167,-584.736C706.1631,-576.213 693.6721,-549.7236 686,-530 678.1314,-509.7714 660.8686,-514.2286 653,-494 637.4518,-454.0286 610.1111,-397.5 653,-397.5"/>
<polygon fill="#000000" stroke="#000000" points="695.6184,-584.7639 684.7688,-583.1717 690.8092,-586.132 686,-587.5 686,-587.5 686,-587.5 690.8092,-586.132 687.2312,-591.8283 695.6184,-584.7639 695.6184,-584.7639"/>
<text text-anchor="start" x="68.448" y="-597.5" font-family="Arial" font-size="10.00" fill="#000000">FOREIGN KEY (permission_id) REFERENCES auth_permission (id) ON UPDATE NO ACTION ON DELETE NO ACTION MATCH NONE</text>
</g>
<!-- auth_user_user_permissions -->
<g id="node3" class="node">
<title>auth_user_user_permissions</title>
<polygon fill="#efefef" stroke="transparent" points="790,-662.5 790,-697.5 1077,-697.5 1077,-662.5 790,-662.5"/>
<polygon fill="none" stroke="#000000" points="790,-662.5 790,-697.5 1077,-697.5 1077,-662.5 790,-662.5"/>
<text text-anchor="start" x="796.9685" y="-675.3" font-family="Arial Bold" font-size="18.00" fill="#000000">auth_user_user_permissions</text>
<text text-anchor="start" x="1028.0147" y="-675.3" font-family="Arial" font-size="14.00" fill="#000000"> </text>
<text text-anchor="start" x="1031.9053" y="-675.3" font-family="Arial" font-size="14.00" fill="#666666">[table]</text>
<polygon fill="none" stroke="#000000" points="790,-632.5 790,-662.5 1077,-662.5 1077,-632.5 790,-632.5"/>
<text text-anchor="start" x="797" y="-643.9" font-family="Arial" font-size="14.00" fill="#000000">id </text>
<text text-anchor="start" x="811.7798" y="-643.9" font-family="Arial" font-size="14.00" fill="#666666">[integer]</text>
<polygon fill="none" stroke="#000000" points="790,-602.5 790,-632.5 1077,-632.5 1077,-602.5 790,-602.5"/>
<text text-anchor="start" x="797" y="-613.9" font-family="Arial" font-size="14.00" fill="#000000">user_id </text>
<text text-anchor="start" x="846.7882" y="-613.9" font-family="Arial" font-size="14.00" fill="#666666">[integer]</text>
<polygon fill="none" stroke="#000000" points="790,-572.5 790,-602.5 1077,-602.5 1077,-572.5 790,-572.5"/>
<text text-anchor="start" x="797" y="-583.9" font-family="Arial" font-size="14.00" fill="#000000">permission_id </text>
<text text-anchor="start" x="887.2272" y="-583.9" font-family="Arial" font-size="14.00" fill="#666666">[integer]</text>
</g>
<!-- auth_user_user_permissions&#45;&gt;auth_permission -->
<g id="edge2" class="edge">
<title>auth_user_user_permissions:permission_id&#45;&gt;auth_permission:id</title>
<path fill="none" stroke="#000000" d="M780.1004,-584.6533C769.1273,-575.8922 780.2636,-548.7905 790,-530 802.7644,-505.3657 828.2356,-518.6343 841,-494 860.7316,-455.9196 883.8889,-397.5 841,-397.5"/>
<polygon fill="#000000" stroke="#000000" points="780.3894,-584.7364 788.7564,-591.8248 785.1947,-586.1182 790,-587.5 790,-587.5 790,-587.5 785.1947,-586.1182 791.2436,-583.1752 780.3894,-584.7364 780.3894,-584.7364"/>
<text text-anchor="start" x="797.448" y="-597.5" font-family="Arial" font-size="10.00" fill="#000000">FOREIGN KEY (permission_id) REFERENCES auth_permission (id) ON UPDATE NO ACTION ON DELETE NO ACTION MATCH NONE</text>
</g>
</g>
</svg>
