<?xml version="1.0" encoding="UTF-8" standalone="no"?>
<!DOCTYPE svg PUBLIC "-//W3C//DTD SVG 1.1//EN"
 "http://www.w3.org/Graphics/SVG/1.1/DTD/svg11.dtd">
<!-- Generated by graphviz version 2.40.1 (20161225.0304)
 -->
<!-- Title: django_content_type Pages: 1 -->
<svg width="1418pt" height="622pt"
 viewBox="0.00 0.00 1418.00 622.00" xmlns="http://www.w3.org/2000/svg" xmlns:xlink="http://www.w3.org/1999/xlink">
<g id="graph0" class="graph" transform="scale(1 1) rotate(0) translate(4 618)">
<title>django_content_type</title>
<polygon fill="#ffffff" stroke="transparent" points="-4,4 -4,-618 1414,-618 1414,4 -4,4"/>
<!-- django_content_type -->
<g id="node1" class="node">
<title>django_content_type</title>
<polygon fill="#efefef" stroke="transparent" points="589,-135.5 589,-170.5 812,-170.5 812,-135.5 589,-135.5"/>
<polygon fill="none" stroke="#000000" points="589,-135.5 589,-170.5 812,-170.5 812,-135.5 589,-135.5"/>
<text text-anchor="start" x="595.9509" y="-148.3" font-family="Arial Bold" font-size="18.00" fill="#000000">django_content_type</text>
<text text-anchor="start" x="763.0323" y="-148.3" font-family="Arial" font-size="14.00" fill="#000000"> </text>
<text text-anchor="start" x="766.9229" y="-148.3" font-family="Arial" font-size="14.00" fill="#666666">[table]</text>
<polygon fill="none" stroke="#000000" points="589,-105.5 589,-135.5 812,-135.5 812,-105.5 589,-105.5"/>
<text text-anchor="start" x="596" y="-116.9" font-family="Arial" font-size="14.00" fill="#000000">id </text>
<text text-anchor="start" x="610.7798" y="-116.9" font-family="Arial" font-size="14.00" fill="#666666">[integer]</text>
<polygon fill="none" stroke="#000000" points="589,-75.5 589,-105.5 812,-105.5 812,-75.5 589,-75.5"/>
<text text-anchor="start" x="596" y="-86.9" font-family="Arial" font-size="14.00" fill="#000000">app_label </text>
<text text-anchor="start" x="660.582" y="-86.9" font-family="Arial" font-size="14.00" fill="#666666">[varchar(100)]</text>
<polygon fill="none" stroke="#000000" points="589,-45.5 589,-75.5 812,-75.5 812,-45.5 589,-45.5"/>
<text text-anchor="start" x="596" y="-56.9" font-family="Arial" font-size="14.00" fill="#000000">model </text>
<text text-anchor="start" x="638.0056" y="-56.9" font-family="Arial" font-size="14.00" fill="#666666">[varchar(100)]</text>
<polygon fill="none" stroke="#000000" stroke-width="3" points="587,-44.5 587,-172.5 813,-172.5 813,-44.5 587,-44.5"/>
</g>
<!-- django_admin_log -->
<g id="node2" class="node">
<title>django_admin_log</title>
<polygon fill="#efefef" stroke="transparent" points="450,-535.5 450,-570.5 653,-570.5 653,-535.5 450,-535.5"/>
<polygon fill="none" stroke="#000000" points="450,-535.5 450,-570.5 653,-570.5 653,-535.5 450,-535.5"/>
<text text-anchor="start" x="456.967" y="-548.3" font-family="Arial Bold" font-size="18.00" fill="#000000">django_admin_log</text>
<text text-anchor="start" x="604.0162" y="-548.3" font-family="Arial" font-size="14.00" fill="#000000"> </text>
<text text-anchor="start" x="607.9068" y="-548.3" font-family="Arial" font-size="14.00" fill="#666666">[table]</text>
<polygon fill="none" stroke="#000000" points="450,-505.5 450,-535.5 653,-535.5 653,-505.5 450,-505.5"/>
<text text-anchor="start" x="457" y="-516.9" font-family="Arial" font-size="14.00" fill="#000000">id </text>
<text text-anchor="start" x="471.7798" y="-516.9" font-family="Arial" font-size="14.00" fill="#666666">[integer]</text>
<polygon fill="none" stroke="#000000" points="450,-475.5 450,-505.5 653,-505.5 653,-475.5 450,-475.5"/>
<text text-anchor="start" x="457" y="-486.9" font-family="Arial" font-size="14.00" fill="#000000">action_time </text>
<text text-anchor="start" x="532.4586" y="-486.9" font-family="Arial" font-size="14.00" fill="#666666">[datetime]</text>
<polygon fill="none" stroke="#000000" points="450,-445.5 450,-475.5 653,-475.5 653,-445.5 450,-445.5"/>
<text text-anchor="start" x="457" y="-456.9" font-family="Arial" font-size="14.00" fill="#000000">object_id </text>
<text text-anchor="start" x="516.9074" y="-456.9" font-family="Arial" font-size="14.00" fill="#666666">[text]</text>
<polygon fill="none" stroke="#000000" points="450,-415.5 450,-445.5 653,-445.5 653,-415.5 450,-415.5"/>
<text text-anchor="start" x="457" y="-426.9" font-family="Arial" font-size="14.00" fill="#000000">object_repr </text>
<text text-anchor="start" x="530.9046" y="-426.9" font-family="Arial" font-size="14.00" fill="#666666">[varchar(200)]</text>
<polygon fill="none" stroke="#000000" points="450,-385.5 450,-415.5 653,-415.5 653,-385.5 450,-385.5"/>
<text text-anchor="start" x="457" y="-396.9" font-family="Arial" font-size="14.00" fill="#000000">change_message </text>
<text text-anchor="start" x="571.3772" y="-396.9" font-family="Arial" font-size="14.00" fill="#666666">[text]</text>
<polygon fill="none" stroke="#000000" points="450,-355.5 450,-385.5 653,-385.5 653,-355.5 450,-355.5"/>
<text text-anchor="start" x="457" y="-366.9" font-family="Arial" font-size="14.00" fill="#000000">content_type_id </text>
<text text-anchor="start" x="559.7124" y="-366.9" font-family="Arial" font-size="14.00" fill="#666666">[integer]</text>
<polygon fill="none" stroke="#000000" points="450,-325.5 450,-355.5 653,-355.5 653,-325.5 450,-325.5"/>
<text text-anchor="start" x="457" y="-336.9" font-family="Arial" font-size="14.00" fill="#000000">user_id </text>
<text text-anchor="start" x="506.7882" y="-336.9" font-family="Arial" font-size="14.00" fill="#666666">[integer]</text>
<polygon fill="none" stroke="#000000" points="450,-295.5 450,-325.5 653,-325.5 653,-295.5 450,-295.5"/>
<text text-anchor="start" x="457" y="-306.9" font-family="Arial" font-size="14.00" fill="#000000">action_flag </text>
<text text-anchor="start" x="528.5806" y="-306.9" font-family="Arial" font-size="14.00" fill="#666666">[smallint unsigned]</text>
</g>
<!-- django_admin_log&#45;&gt;django_content_type -->
<g id="edge1" class="edge">
<title>django_admin_log:content_type_id&#45;&gt;django_content_type:id</title>
<path fill="none" stroke="#000000" d="M663.369,-369.344C701.3811,-359.9006 677.4075,-294.733 653,-253 636.524,-224.8286 605.476,-245.1714 589,-217 567.3477,-179.9779 546.1111,-120.5 589,-120.5"/>
<polygon fill="#000000" stroke="#000000" points="662.9384,-369.3919 652.5014,-366.0277 657.9692,-369.946 653,-370.5 653,-370.5 653,-370.5 657.9692,-369.946 653.4986,-374.9723 662.9384,-369.3919 662.9384,-369.3919"/>
<text text-anchor="start" x="7.251" y="-380.5" font-family="Arial" font-size="10.00" fill="#000000">FOREIGN KEY (content_type_id) REFERENCES django_content_type (id) ON UPDATE NO ACTION ON DELETE NO ACTION MATCH NONE</text>
</g>
<!-- auth_permission -->
<g id="node3" class="node">
<title>auth_permission</title>
<polygon fill="#efefef" stroke="transparent" points="757,-475.5 757,-510.5 945,-510.5 945,-475.5 757,-475.5"/>
<polygon fill="none" stroke="#000000" points="757,-475.5 757,-510.5 945,-510.5 945,-475.5 757,-475.5"/>
<text text-anchor="start" x="763.9793" y="-488.3" font-family="Arial Bold" font-size="18.00" fill="#000000">auth_permission</text>
<text text-anchor="start" x="896.0039" y="-488.3" font-family="Arial" font-size="14.00" fill="#000000"> </text>
<text text-anchor="start" x="899.8945" y="-488.3" font-family="Arial" font-size="14.00" fill="#666666">[table]</text>
<polygon fill="none" stroke="#000000" points="757,-445.5 757,-475.5 945,-475.5 945,-445.5 757,-445.5"/>
<text text-anchor="start" x="764" y="-456.9" font-family="Arial" font-size="14.00" fill="#000000">id </text>
<text text-anchor="start" x="778.7798" y="-456.9" font-family="Arial" font-size="14.00" fill="#666666">[integer]</text>
<polygon fill="none" stroke="#000000" points="757,-415.5 757,-445.5 945,-445.5 945,-415.5 757,-415.5"/>
<text text-anchor="start" x="764" y="-426.9" font-family="Arial" font-size="14.00" fill="#000000">content_type_id </text>
<text text-anchor="start" x="866.7124" y="-426.9" font-family="Arial" font-size="14.00" fill="#666666">[integer]</text>
<polygon fill="none" stroke="#000000" points="757,-385.5 757,-415.5 945,-415.5 945,-385.5 757,-385.5"/>
<text text-anchor="start" x="764" y="-396.9" font-family="Arial" font-size="14.00" fill="#000000">codename </text>
<text text-anchor="start" x="833.2468" y="-396.9" font-family="Arial" font-size="14.00" fill="#666666">[varchar(100)]</text>
<polygon fill="none" stroke="#000000" points="757,-355.5 757,-385.5 945,-385.5 945,-355.5 757,-355.5"/>
<text text-anchor="start" x="764" y="-366.9" font-family="Arial" font-size="14.00" fill="#000000">name </text>
<text text-anchor="start" x="802.899" y="-366.9" font-family="Arial" font-size="14.00" fill="#666666">[varchar(255)]</text>
</g>
<!-- auth_permission&#45;&gt;django_content_type -->
<g id="edge2" class="edge">
<title>auth_permission:content_type_id&#45;&gt;django_content_type:id</title>
<path fill="none" stroke="#000000" d="M746.8027,-429.8751C656.2582,-417.8743 806.7228,-236.827 812,-217 823.0314,-175.5541 854.8889,-120.5 812,-120.5"/>
<polygon fill="#000000" stroke="#000000" points="747.0187,-429.8882 756.7247,-434.9916 752.0094,-430.1941 757,-430.5 757,-430.5 757,-430.5 752.0094,-430.1941 757.2753,-426.0084 747.0187,-429.8882 747.0187,-429.8882"/>
<text text-anchor="start" x="764.251" y="-440.5" font-family="Arial" font-size="10.00" fill="#000000">FOREIGN KEY (content_type_id) REFERENCES django_content_type (id) ON UPDATE NO ACTION ON DELETE NO ACTION MATCH NONE</text>
</g>
</g>
</svg>
