<?xml version="1.0" encoding="UTF-8" standalone="no"?>
<!DOCTYPE svg PUBLIC "-//W3C//DTD SVG 1.1//EN"
 "http://www.w3.org/Graphics/SVG/1.1/DTD/svg11.dtd">
<!-- Generated by graphviz version 2.40.1 (20161225.0304)
 -->
<!-- Title: django_session Pages: 1 -->
<svg width="281pt" height="225pt"
 viewBox="0.00 0.00 281.00 225.00" xmlns="http://www.w3.org/2000/svg" xmlns:xlink="http://www.w3.org/1999/xlink">
<g id="graph0" class="graph" transform="scale(1 1) rotate(0) translate(4 221)">
<title>django_session</title>
<polygon fill="#ffffff" stroke="transparent" points="-4,4 -4,-221 277,-221 277,4 -4,4"/>
<!-- django_session -->
<g id="node1" class="node">
<title>django_session</title>
<polygon fill="#efefef" stroke="transparent" points="46.5,-135.5 46.5,-170.5 227.5,-170.5 227.5,-135.5 46.5,-135.5"/>
<polygon fill="none" stroke="#000000" points="46.5,-135.5 46.5,-170.5 227.5,-170.5 227.5,-135.5 46.5,-135.5"/>
<text text-anchor="start" x="53.4695" y="-148.3" font-family="Arial Bold" font-size="18.00" fill="#000000">django_session</text>
<text text-anchor="start" x="178.5137" y="-148.3" font-family="Arial" font-size="14.00" fill="#000000"> </text>
<text text-anchor="start" x="182.4043" y="-148.3" font-family="Arial" font-size="14.00" fill="#666666">[table]</text>
<polygon fill="none" stroke="#000000" points="46.5,-105.5 46.5,-135.5 227.5,-135.5 227.5,-105.5 46.5,-105.5"/>
<text text-anchor="start" x="53.5" y="-116.9" font-family="Arial" font-size="14.00" fill="#000000">session_key </text>
<text text-anchor="start" x="134.4102" y="-116.9" font-family="Arial" font-size="14.00" fill="#666666">[varchar(40)]</text>
<polygon fill="none" stroke="#000000" points="46.5,-75.5 46.5,-105.5 227.5,-105.5 227.5,-75.5 46.5,-75.5"/>
<text text-anchor="start" x="53.5" y="-86.9" font-family="Arial" font-size="14.00" fill="#000000">session_data </text>
<text text-anchor="start" x="139.866" y="-86.9" font-family="Arial" font-size="14.00" fill="#666666">[text]</text>
<polygon fill="none" stroke="#000000" points="46.5,-45.5 46.5,-75.5 227.5,-75.5 227.5,-45.5 46.5,-45.5"/>
<text text-anchor="start" x="53.5" y="-56.9" font-family="Arial" font-size="14.00" fill="#000000">expire_date </text>
<text text-anchor="start" x="130.5266" y="-56.9" font-family="Arial" font-size="14.00" fill="#666666">[datetime]</text>
<polygon fill="none" stroke="#000000" stroke-width="3" points="44.5,-44.5 44.5,-172.5 228.5,-172.5 228.5,-44.5 44.5,-44.5"/>
</g>
</g>
</svg>
