<?xml version="1.0" encoding="UTF-8" standalone="no"?>
<!DOCTYPE svg PUBLIC "-//W3C//DTD SVG 1.1//EN"
 "http://www.w3.org/Graphics/SVG/1.1/DTD/svg11.dtd">
<!-- Generated by graphviz version 2.40.1 (20161225.0304)
 -->
<!-- Title: django_admin_log Pages: 1 -->
<svg width="1431pt" height="862pt"
 viewBox="0.00 0.00 1431.00 862.00" xmlns="http://www.w3.org/2000/svg" xmlns:xlink="http://www.w3.org/1999/xlink">
<g id="graph0" class="graph" transform="scale(1 1) rotate(0) translate(4 858)">
<title>django_admin_log</title>
<polygon fill="#ffffff" stroke="transparent" points="-4,4 -4,-858 1427,-858 1427,4 -4,4"/>
<!-- django_admin_log -->
<g id="node1" class="node">
<title>django_admin_log</title>
<polygon fill="#efefef" stroke="transparent" points="653,-772.5 653,-807.5 856,-807.5 856,-772.5 653,-772.5"/>
<polygon fill="none" stroke="#000000" points="653,-772.5 653,-807.5 856,-807.5 856,-772.5 653,-772.5"/>
<text text-anchor="start" x="659.967" y="-785.3" font-family="Arial Bold" font-size="18.00" fill="#000000">django_admin_log</text>
<text text-anchor="start" x="807.0162" y="-785.3" font-family="Arial" font-size="14.00" fill="#000000"> </text>
<text text-anchor="start" x="810.9068" y="-785.3" font-family="Arial" font-size="14.00" fill="#666666">[table]</text>
<polygon fill="none" stroke="#000000" points="653,-742.5 653,-772.5 856,-772.5 856,-742.5 653,-742.5"/>
<text text-anchor="start" x="660" y="-753.9" font-family="Arial" font-size="14.00" fill="#000000">id </text>
<text text-anchor="start" x="674.7798" y="-753.9" font-family="Arial" font-size="14.00" fill="#666666">[integer]</text>
<polygon fill="none" stroke="#000000" points="653,-712.5 653,-742.5 856,-742.5 856,-712.5 653,-712.5"/>
<text text-anchor="start" x="660" y="-723.9" font-family="Arial" font-size="14.00" fill="#000000">action_time </text>
<text text-anchor="start" x="735.4586" y="-723.9" font-family="Arial" font-size="14.00" fill="#666666">[datetime]</text>
<polygon fill="none" stroke="#000000" points="653,-682.5 653,-712.5 856,-712.5 856,-682.5 653,-682.5"/>
<text text-anchor="start" x="660" y="-693.9" font-family="Arial" font-size="14.00" fill="#000000">object_id </text>
<text text-anchor="start" x="719.9074" y="-693.9" font-family="Arial" font-size="14.00" fill="#666666">[text]</text>
<polygon fill="none" stroke="#000000" points="653,-652.5 653,-682.5 856,-682.5 856,-652.5 653,-652.5"/>
<text text-anchor="start" x="660" y="-663.9" font-family="Arial" font-size="14.00" fill="#000000">object_repr </text>
<text text-anchor="start" x="733.9046" y="-663.9" font-family="Arial" font-size="14.00" fill="#666666">[varchar(200)]</text>
<polygon fill="none" stroke="#000000" points="653,-622.5 653,-652.5 856,-652.5 856,-622.5 653,-622.5"/>
<text text-anchor="start" x="660" y="-633.9" font-family="Arial" font-size="14.00" fill="#000000">change_message </text>
<text text-anchor="start" x="774.3772" y="-633.9" font-family="Arial" font-size="14.00" fill="#666666">[text]</text>
<polygon fill="none" stroke="#000000" points="653,-592.5 653,-622.5 856,-622.5 856,-592.5 653,-592.5"/>
<text text-anchor="start" x="660" y="-603.9" font-family="Arial" font-size="14.00" fill="#000000">content_type_id </text>
<text text-anchor="start" x="762.7124" y="-603.9" font-family="Arial" font-size="14.00" fill="#666666">[integer]</text>
<polygon fill="none" stroke="#000000" points="653,-562.5 653,-592.5 856,-592.5 856,-562.5 653,-562.5"/>
<text text-anchor="start" x="660" y="-573.9" font-family="Arial" font-size="14.00" fill="#000000">user_id </text>
<text text-anchor="start" x="709.7882" y="-573.9" font-family="Arial" font-size="14.00" fill="#666666">[integer]</text>
<polygon fill="none" stroke="#000000" points="653,-532.5 653,-562.5 856,-562.5 856,-532.5 653,-532.5"/>
<text text-anchor="start" x="660" y="-543.9" font-family="Arial" font-size="14.00" fill="#000000">action_flag </text>
<text text-anchor="start" x="731.5806" y="-543.9" font-family="Arial" font-size="14.00" fill="#666666">[smallint unsigned]</text>
<polygon fill="none" stroke="#000000" stroke-width="3" points="651,-531.5 651,-809.5 857,-809.5 857,-531.5 651,-531.5"/>
</g>
<!-- django_content_type -->
<g id="node2" class="node">
<title>django_content_type</title>
<polygon fill="#efefef" stroke="transparent" points="493,-252.5 493,-287.5 716,-287.5 716,-252.5 493,-252.5"/>
<polygon fill="none" stroke="#000000" points="493,-252.5 493,-287.5 716,-287.5 716,-252.5 493,-252.5"/>
<text text-anchor="start" x="499.9509" y="-265.3" font-family="Arial Bold" font-size="18.00" fill="#000000">django_content_type</text>
<text text-anchor="start" x="667.0323" y="-265.3" font-family="Arial" font-size="14.00" fill="#000000"> </text>
<text text-anchor="start" x="670.9229" y="-265.3" font-family="Arial" font-size="14.00" fill="#666666">[table]</text>
<polygon fill="none" stroke="#000000" points="493,-222.5 493,-252.5 716,-252.5 716,-222.5 493,-222.5"/>
<text text-anchor="start" x="500" y="-233.9" font-family="Arial" font-size="14.00" fill="#000000">id </text>
<text text-anchor="start" x="514.7798" y="-233.9" font-family="Arial" font-size="14.00" fill="#666666">[integer]</text>
<polygon fill="none" stroke="#000000" points="493,-192.5 493,-222.5 716,-222.5 716,-192.5 493,-192.5"/>
<text text-anchor="start" x="500" y="-203.9" font-family="Arial" font-size="14.00" fill="#000000">app_label </text>
<text text-anchor="start" x="564.582" y="-203.9" font-family="Arial" font-size="14.00" fill="#666666">[varchar(100)]</text>
<polygon fill="none" stroke="#000000" points="493,-162.5 493,-192.5 716,-192.5 716,-162.5 493,-162.5"/>
<text text-anchor="start" x="500" y="-173.9" font-family="Arial" font-size="14.00" fill="#000000">model </text>
<text text-anchor="start" x="542.0056" y="-173.9" font-family="Arial" font-size="14.00" fill="#666666">[varchar(100)]</text>
</g>
<!-- django_admin_log&#45;&gt;django_content_type -->
<g id="edge1" class="edge">
<title>django_admin_log:content_type_id&#45;&gt;django_content_type:id</title>
<path fill="none" stroke="#000000" d="M642.5998,-606.9484C503.7216,-591.0656 879.0645,-237.5 716,-237.5"/>
<polygon fill="#000000" stroke="#000000" points="643.014,-606.9703 652.7616,-611.9937 648.007,-607.2351 653,-607.5 653,-607.5 653,-607.5 648.007,-607.2351 653.2384,-603.0063 643.014,-606.9703 643.014,-606.9703"/>
<text text-anchor="start" x="7.251" y="-617.5" font-family="Arial" font-size="10.00" fill="#000000">FOREIGN KEY (content_type_id) REFERENCES django_content_type (id) ON UPDATE NO ACTION ON DELETE NO ACTION MATCH NONE</text>
</g>
<!-- auth_user -->
<g id="node3" class="node">
<title>auth_user</title>
<polygon fill="#efefef" stroke="transparent" points="820,-372.5 820,-407.5 990,-407.5 990,-372.5 820,-372.5"/>
<polygon fill="none" stroke="#000000" points="820,-372.5 820,-407.5 990,-407.5 990,-372.5 820,-372.5"/>
<text text-anchor="start" x="843.9758" y="-385.3" font-family="Arial Bold" font-size="18.00" fill="#000000">auth_user</text>
<text text-anchor="start" x="924.0074" y="-385.3" font-family="Arial" font-size="14.00" fill="#000000"> </text>
<text text-anchor="start" x="927.898" y="-385.3" font-family="Arial" font-size="14.00" fill="#666666">[table]</text>
<polygon fill="none" stroke="#000000" points="820,-342.5 820,-372.5 990,-372.5 990,-342.5 820,-342.5"/>
<text text-anchor="start" x="827" y="-353.9" font-family="Arial" font-size="14.00" fill="#000000">id </text>
<text text-anchor="start" x="841.7798" y="-353.9" font-family="Arial" font-size="14.00" fill="#666666">[integer]</text>
<polygon fill="none" stroke="#000000" points="820,-312.5 820,-342.5 990,-342.5 990,-312.5 820,-312.5"/>
<text text-anchor="start" x="827" y="-323.9" font-family="Arial" font-size="14.00" fill="#000000">password </text>
<text text-anchor="start" x="890.7882" y="-323.9" font-family="Arial" font-size="14.00" fill="#666666">[varchar(128)]</text>
<polygon fill="none" stroke="#000000" points="820,-282.5 820,-312.5 990,-312.5 990,-282.5 820,-282.5"/>
<text text-anchor="start" x="827" y="-293.9" font-family="Arial" font-size="14.00" fill="#000000">last_login </text>
<text text-anchor="start" x="890.014" y="-293.9" font-family="Arial" font-size="14.00" fill="#666666">[datetime]</text>
<polygon fill="none" stroke="#000000" points="820,-252.5 820,-282.5 990,-282.5 990,-252.5 820,-252.5"/>
<text text-anchor="start" x="827" y="-263.9" font-family="Arial" font-size="14.00" fill="#000000">is_superuser </text>
<text text-anchor="start" x="911.014" y="-263.9" font-family="Arial" font-size="14.00" fill="#666666">[bool]</text>
<polygon fill="none" stroke="#000000" points="820,-222.5 820,-252.5 990,-252.5 990,-222.5 820,-222.5"/>
<text text-anchor="start" x="827" y="-233.9" font-family="Arial" font-size="14.00" fill="#000000">username </text>
<text text-anchor="start" x="893.1248" y="-233.9" font-family="Arial" font-size="14.00" fill="#666666">[varchar(150)]</text>
<polygon fill="none" stroke="#000000" points="820,-192.5 820,-222.5 990,-222.5 990,-192.5 820,-192.5"/>
<text text-anchor="start" x="827" y="-203.9" font-family="Arial" font-size="14.00" fill="#000000">last_name </text>
<text text-anchor="start" x="895.4614" y="-203.9" font-family="Arial" font-size="14.00" fill="#666666">[varchar(150)]</text>
<polygon fill="none" stroke="#000000" points="820,-162.5 820,-192.5 990,-192.5 990,-162.5 820,-162.5"/>
<text text-anchor="start" x="827" y="-173.9" font-family="Arial" font-size="14.00" fill="#000000">email </text>
<text text-anchor="start" x="864.3296" y="-173.9" font-family="Arial" font-size="14.00" fill="#666666">[varchar(254)]</text>
<polygon fill="none" stroke="#000000" points="820,-132.5 820,-162.5 990,-162.5 990,-132.5 820,-132.5"/>
<text text-anchor="start" x="827" y="-143.9" font-family="Arial" font-size="14.00" fill="#000000">is_staff </text>
<text text-anchor="start" x="875.2342" y="-143.9" font-family="Arial" font-size="14.00" fill="#666666">[bool]</text>
<polygon fill="none" stroke="#000000" points="820,-102.5 820,-132.5 990,-132.5 990,-102.5 820,-102.5"/>
<text text-anchor="start" x="827" y="-113.9" font-family="Arial" font-size="14.00" fill="#000000">is_active </text>
<text text-anchor="start" x="885.3422" y="-113.9" font-family="Arial" font-size="14.00" fill="#666666">[bool]</text>
<polygon fill="none" stroke="#000000" points="820,-72.5 820,-102.5 990,-102.5 990,-72.5 820,-72.5"/>
<text text-anchor="start" x="827" y="-83.9" font-family="Arial" font-size="14.00" fill="#000000">date_joined </text>
<text text-anchor="start" x="903.2552" y="-83.9" font-family="Arial" font-size="14.00" fill="#666666">[datetime]</text>
<polygon fill="none" stroke="#000000" points="820,-42.5 820,-72.5 990,-72.5 990,-42.5 820,-42.5"/>
<text text-anchor="start" x="826.8254" y="-53.9" font-family="Arial" font-size="14.00" fill="#000000">first_name </text>
<text text-anchor="start" x="896.0554" y="-53.9" font-family="Arial" font-size="14.00" fill="#666666">[varchar(150)]</text>
</g>
<!-- django_admin_log&#45;&gt;auth_user -->
<g id="edge2" class="edge">
<title>django_admin_log:user_id&#45;&gt;auth_user:id</title>
<path fill="none" stroke="#000000" d="M865.9921,-576.0387C891.4626,-567.2364 869.8892,-520.5315 856,-487 847.3409,-466.095 828.6591,-471.905 820,-451 804.0974,-412.6077 778.4444,-357.5 820,-357.5"/>
<polygon fill="#000000" stroke="#000000" points="865.8947,-576.0528 855.3488,-573.0474 860.9474,-576.7764 856,-577.5 856,-577.5 856,-577.5 860.9474,-576.7764 856.6512,-581.9526 865.8947,-576.0528 865.8947,-576.0528"/>
<text text-anchor="start" x="863.333" y="-587.5" font-family="Arial" font-size="10.00" fill="#000000">FOREIGN KEY (user_id) REFERENCES auth_user (id) ON UPDATE NO ACTION ON DELETE NO ACTION MATCH NONE</text>
</g>
</g>
</svg>
