<?xml version="1.0" encoding="UTF-8" standalone="no"?>
<!DOCTYPE svg PUBLIC "-//W3C//DTD SVG 1.1//EN"
 "http://www.w3.org/Graphics/SVG/1.1/DTD/svg11.dtd">
<!-- Generated by graphviz version 2.40.1 (20161225.0304)
 -->
<!-- Title: db.sqlite3 Pages: 1 -->
<svg width="2306pt" height="1103pt"
 viewBox="0.00 0.00 2306.00 1103.00" xmlns="http://www.w3.org/2000/svg" xmlns:xlink="http://www.w3.org/1999/xlink">
<g id="graph0" class="graph" transform="scale(1 1) rotate(0) translate(4 1099)">
<title>db.sqlite3</title>
<polygon fill="#ffffff" stroke="transparent" points="-4,4 -4,-1099 2302,-1099 2302,4 -4,4"/>
<!-- django_migrations -->
<g id="node1" class="node">
<title>django_migrations</title>
<polygon fill="#efefef" stroke="transparent" points="143,-956.5 143,-991.5 346,-991.5 346,-956.5 143,-956.5"/>
<polygon fill="none" stroke="#000000" points="143,-956.5 143,-991.5 346,-991.5 346,-956.5 143,-956.5"/>
<text text-anchor="start" x="149.976" y="-969.3" font-family="Arial Bold" font-size="18.00" fill="#000000">django_migrations</text>
<text text-anchor="start" x="297.0072" y="-969.3" font-family="Arial" font-size="14.00" fill="#000000"> </text>
<text text-anchor="start" x="300.8978" y="-969.3" font-family="Arial" font-size="14.00" fill="#666666">[table]</text>
<polygon fill="none" stroke="#000000" points="143,-926.5 143,-956.5 346,-956.5 346,-926.5 143,-926.5"/>
<text text-anchor="start" x="150" y="-937.9" font-family="Arial" font-size="14.00" fill="#000000">id </text>
<text text-anchor="start" x="164.7798" y="-937.9" font-family="Arial" font-size="14.00" fill="#666666">[integer]</text>
<polygon fill="none" stroke="#000000" points="143,-896.5 143,-926.5 346,-926.5 346,-896.5 143,-896.5"/>
<text text-anchor="start" x="150" y="-907.9" font-family="Arial" font-size="14.00" fill="#000000">app </text>
<text text-anchor="start" x="177.2384" y="-907.9" font-family="Arial" font-size="14.00" fill="#666666">[varchar(255)]</text>
<polygon fill="none" stroke="#000000" points="143,-866.5 143,-896.5 346,-896.5 346,-866.5 143,-866.5"/>
<text text-anchor="start" x="150" y="-877.9" font-family="Arial" font-size="14.00" fill="#000000">name </text>
<text text-anchor="start" x="188.899" y="-877.9" font-family="Arial" font-size="14.00" fill="#666666">[varchar(255)]</text>
<polygon fill="none" stroke="#000000" points="143,-836.5 143,-866.5 346,-866.5 346,-836.5 143,-836.5"/>
<text text-anchor="start" x="150" y="-847.9" font-family="Arial" font-size="14.00" fill="#000000">applied </text>
<text text-anchor="start" x="199.0168" y="-847.9" font-family="Arial" font-size="14.00" fill="#666666">[datetime]</text>
</g>
<!-- auth_group_permissions -->
<g id="node2" class="node">
<title>auth_group_permissions</title>
<polygon fill="#efefef" stroke="transparent" points="1453,-941.5 1453,-976.5 1706,-976.5 1706,-941.5 1453,-941.5"/>
<polygon fill="none" stroke="#000000" points="1453,-941.5 1453,-976.5 1706,-976.5 1706,-941.5 1453,-941.5"/>
<text text-anchor="start" x="1459.9677" y="-954.3" font-family="Arial Bold" font-size="18.00" fill="#000000">auth_group_permissions</text>
<text text-anchor="start" x="1657.0155" y="-954.3" font-family="Arial" font-size="14.00" fill="#000000"> </text>
<text text-anchor="start" x="1660.9061" y="-954.3" font-family="Arial" font-size="14.00" fill="#666666">[table]</text>
<polygon fill="none" stroke="#000000" points="1453,-911.5 1453,-941.5 1706,-941.5 1706,-911.5 1453,-911.5"/>
<text text-anchor="start" x="1460" y="-922.9" font-family="Arial" font-size="14.00" fill="#000000">id </text>
<text text-anchor="start" x="1474.7798" y="-922.9" font-family="Arial" font-size="14.00" fill="#666666">[integer]</text>
<polygon fill="none" stroke="#000000" points="1453,-881.5 1453,-911.5 1706,-911.5 1706,-881.5 1453,-881.5"/>
<text text-anchor="start" x="1460" y="-892.9" font-family="Arial" font-size="14.00" fill="#000000">group_id </text>
<text text-anchor="start" x="1518.3534" y="-892.9" font-family="Arial" font-size="14.00" fill="#666666">[integer]</text>
<polygon fill="none" stroke="#000000" points="1453,-851.5 1453,-881.5 1706,-881.5 1706,-851.5 1453,-851.5"/>
<text text-anchor="start" x="1460" y="-862.9" font-family="Arial" font-size="14.00" fill="#000000">permission_id </text>
<text text-anchor="start" x="1550.2272" y="-862.9" font-family="Arial" font-size="14.00" fill="#666666">[integer]</text>
</g>
<!-- auth_permission -->
<g id="node7" class="node">
<title>auth_permission</title>
<polygon fill="#efefef" stroke="transparent" points="1041,-514.5 1041,-549.5 1229,-549.5 1229,-514.5 1041,-514.5"/>
<polygon fill="none" stroke="#000000" points="1041,-514.5 1041,-549.5 1229,-549.5 1229,-514.5 1041,-514.5"/>
<text text-anchor="start" x="1047.9793" y="-527.3" font-family="Arial Bold" font-size="18.00" fill="#000000">auth_permission</text>
<text text-anchor="start" x="1180.0039" y="-527.3" font-family="Arial" font-size="14.00" fill="#000000"> </text>
<text text-anchor="start" x="1183.8945" y="-527.3" font-family="Arial" font-size="14.00" fill="#666666">[table]</text>
<polygon fill="none" stroke="#000000" points="1041,-484.5 1041,-514.5 1229,-514.5 1229,-484.5 1041,-484.5"/>
<text text-anchor="start" x="1048" y="-495.9" font-family="Arial" font-size="14.00" fill="#000000">id </text>
<text text-anchor="start" x="1062.7798" y="-495.9" font-family="Arial" font-size="14.00" fill="#666666">[integer]</text>
<polygon fill="none" stroke="#000000" points="1041,-454.5 1041,-484.5 1229,-484.5 1229,-454.5 1041,-454.5"/>
<text text-anchor="start" x="1048" y="-465.9" font-family="Arial" font-size="14.00" fill="#000000">content_type_id </text>
<text text-anchor="start" x="1150.7124" y="-465.9" font-family="Arial" font-size="14.00" fill="#666666">[integer]</text>
<polygon fill="none" stroke="#000000" points="1041,-424.5 1041,-454.5 1229,-454.5 1229,-424.5 1041,-424.5"/>
<text text-anchor="start" x="1048" y="-435.9" font-family="Arial" font-size="14.00" fill="#000000">codename </text>
<text text-anchor="start" x="1117.2468" y="-435.9" font-family="Arial" font-size="14.00" fill="#666666">[varchar(100)]</text>
<polygon fill="none" stroke="#000000" points="1041,-394.5 1041,-424.5 1229,-424.5 1229,-394.5 1041,-394.5"/>
<text text-anchor="start" x="1048" y="-405.9" font-family="Arial" font-size="14.00" fill="#000000">name </text>
<text text-anchor="start" x="1086.899" y="-405.9" font-family="Arial" font-size="14.00" fill="#666666">[varchar(255)]</text>
</g>
<!-- auth_group_permissions&#45;&gt;auth_permission -->
<g id="edge1" class="edge">
<title>auth_group_permissions:permission_id&#45;&gt;auth_permission:id</title>
<path fill="none" stroke="#000000" d="M1442.9549,-865.709C1394.7146,-857.3482 1432.532,-784.5224 1401,-734 1389.508,-715.5868 1381.5875,-714.926 1368,-698 1300.5781,-614.0123 1336.7017,-499.5 1229,-499.5"/>
<polygon fill="#000000" stroke="#000000" points="1443.0309,-865.7149 1452.6467,-870.9861 1448.0154,-866.1074 1453,-866.5 1453,-866.5 1453,-866.5 1448.0154,-866.1074 1453.3533,-862.0139 1443.0309,-865.7149 1443.0309,-865.7149"/>
<text text-anchor="start" x="1460.448" y="-876.5" font-family="Arial" font-size="10.00" fill="#000000">FOREIGN KEY (permission_id) REFERENCES auth_permission (id) ON UPDATE NO ACTION ON DELETE NO ACTION MATCH NONE</text>
</g>
<!-- auth_group -->
<g id="node8" class="node">
<title>auth_group</title>
<polygon fill="#efefef" stroke="transparent" points="1420,-484.5 1420,-519.5 1567,-519.5 1567,-484.5 1420,-484.5"/>
<polygon fill="none" stroke="#000000" points="1420,-484.5 1420,-519.5 1567,-519.5 1567,-484.5 1420,-484.5"/>
<text text-anchor="start" x="1426.9696" y="-497.3" font-family="Arial Bold" font-size="18.00" fill="#000000">auth_group</text>
<text text-anchor="start" x="1518.0136" y="-497.3" font-family="Arial" font-size="14.00" fill="#000000"> </text>
<text text-anchor="start" x="1521.9042" y="-497.3" font-family="Arial" font-size="14.00" fill="#666666">[table]</text>
<polygon fill="none" stroke="#000000" points="1420,-454.5 1420,-484.5 1567,-484.5 1567,-454.5 1420,-454.5"/>
<text text-anchor="start" x="1427" y="-465.9" font-family="Arial" font-size="14.00" fill="#000000">id </text>
<text text-anchor="start" x="1441.7798" y="-465.9" font-family="Arial" font-size="14.00" fill="#666666">[integer]</text>
<polygon fill="none" stroke="#000000" points="1420,-424.5 1420,-454.5 1567,-454.5 1567,-424.5 1420,-424.5"/>
<text text-anchor="start" x="1427" y="-435.9" font-family="Arial" font-size="14.00" fill="#000000">name </text>
<text text-anchor="start" x="1465.899" y="-435.9" font-family="Arial" font-size="14.00" fill="#666666">[varchar(150)]</text>
</g>
<!-- auth_group_permissions&#45;&gt;auth_group -->
<g id="edge2" class="edge">
<title>auth_group_permissions:group_id&#45;&gt;auth_group:id</title>
<path fill="none" stroke="#000000" d="M1442.7836,-896.0644C1275.1419,-880.8013 1759.7802,-469.5 1567,-469.5"/>
<polygon fill="#000000" stroke="#000000" points="1443.0091,-896.074 1452.8083,-900.9959 1448.0045,-896.287 1453,-896.5 1453,-896.5 1453,-896.5 1448.0045,-896.287 1453.1917,-892.0041 1443.0091,-896.074 1443.0091,-896.074"/>
<text text-anchor="start" x="1460.215" y="-906.5" font-family="Arial" font-size="10.00" fill="#000000">FOREIGN KEY (group_id) REFERENCES auth_group (id) ON UPDATE NO ACTION ON DELETE NO ACTION MATCH NONE</text>
</g>
<!-- auth_user_groups -->
<g id="node3" class="node">
<title>auth_user_groups</title>
<polygon fill="#efefef" stroke="transparent" points="1148,-941.5 1148,-976.5 1349,-976.5 1349,-941.5 1148,-941.5"/>
<polygon fill="none" stroke="#000000" points="1148,-941.5 1148,-976.5 1349,-976.5 1349,-941.5 1148,-941.5"/>
<text text-anchor="start" x="1154.9642" y="-954.3" font-family="Arial Bold" font-size="18.00" fill="#000000">auth_user_groups</text>
<text text-anchor="start" x="1300.019" y="-954.3" font-family="Arial" font-size="14.00" fill="#000000"> </text>
<text text-anchor="start" x="1303.9096" y="-954.3" font-family="Arial" font-size="14.00" fill="#666666">[table]</text>
<polygon fill="none" stroke="#000000" points="1148,-911.5 1148,-941.5 1349,-941.5 1349,-911.5 1148,-911.5"/>
<text text-anchor="start" x="1155" y="-922.9" font-family="Arial" font-size="14.00" fill="#000000">id </text>
<text text-anchor="start" x="1169.7798" y="-922.9" font-family="Arial" font-size="14.00" fill="#666666">[integer]</text>
<polygon fill="none" stroke="#000000" points="1148,-881.5 1148,-911.5 1349,-911.5 1349,-881.5 1148,-881.5"/>
<text text-anchor="start" x="1155" y="-892.9" font-family="Arial" font-size="14.00" fill="#000000">user_id </text>
<text text-anchor="start" x="1204.7882" y="-892.9" font-family="Arial" font-size="14.00" fill="#666666">[integer]</text>
<polygon fill="none" stroke="#000000" points="1148,-851.5 1148,-881.5 1349,-881.5 1349,-851.5 1148,-851.5"/>
<text text-anchor="start" x="1155" y="-862.9" font-family="Arial" font-size="14.00" fill="#000000">group_id </text>
<text text-anchor="start" x="1213.3534" y="-862.9" font-family="Arial" font-size="14.00" fill="#666666">[integer]</text>
</g>
<!-- auth_user_groups&#45;&gt;auth_group -->
<g id="edge3" class="edge">
<title>auth_user_groups:group_id&#45;&gt;auth_group:id</title>
<path fill="none" stroke="#000000" d="M1359.0564,-864.5512C1430.0755,-834.6015 1334.0539,-469.5 1420,-469.5"/>
<polygon fill="#000000" stroke="#000000" points="1358.8174,-864.5974 1348.1438,-862.0822 1353.9087,-865.5487 1349,-866.5 1349,-866.5 1349,-866.5 1353.9087,-865.5487 1349.8562,-870.9178 1358.8174,-864.5974 1358.8174,-864.5974"/>
<text text-anchor="start" x="777.215" y="-876.5" font-family="Arial" font-size="10.00" fill="#000000">FOREIGN KEY (group_id) REFERENCES auth_group (id) ON UPDATE NO ACTION ON DELETE NO ACTION MATCH NONE</text>
</g>
<!-- auth_user -->
<g id="node9" class="node">
<title>auth_user</title>
<polygon fill="#efefef" stroke="transparent" points="767,-619.5 767,-654.5 937,-654.5 937,-619.5 767,-619.5"/>
<polygon fill="none" stroke="#000000" points="767,-619.5 767,-654.5 937,-654.5 937,-619.5 767,-619.5"/>
<text text-anchor="start" x="790.9758" y="-632.3" font-family="Arial Bold" font-size="18.00" fill="#000000">auth_user</text>
<text text-anchor="start" x="871.0074" y="-632.3" font-family="Arial" font-size="14.00" fill="#000000"> </text>
<text text-anchor="start" x="874.898" y="-632.3" font-family="Arial" font-size="14.00" fill="#666666">[table]</text>
<polygon fill="none" stroke="#000000" points="767,-589.5 767,-619.5 937,-619.5 937,-589.5 767,-589.5"/>
<text text-anchor="start" x="774" y="-600.9" font-family="Arial" font-size="14.00" fill="#000000">id </text>
<text text-anchor="start" x="788.7798" y="-600.9" font-family="Arial" font-size="14.00" fill="#666666">[integer]</text>
<polygon fill="none" stroke="#000000" points="767,-559.5 767,-589.5 937,-589.5 937,-559.5 767,-559.5"/>
<text text-anchor="start" x="774" y="-570.9" font-family="Arial" font-size="14.00" fill="#000000">password </text>
<text text-anchor="start" x="837.7882" y="-570.9" font-family="Arial" font-size="14.00" fill="#666666">[varchar(128)]</text>
<polygon fill="none" stroke="#000000" points="767,-529.5 767,-559.5 937,-559.5 937,-529.5 767,-529.5"/>
<text text-anchor="start" x="774" y="-540.9" font-family="Arial" font-size="14.00" fill="#000000">last_login </text>
<text text-anchor="start" x="837.014" y="-540.9" font-family="Arial" font-size="14.00" fill="#666666">[datetime]</text>
<polygon fill="none" stroke="#000000" points="767,-499.5 767,-529.5 937,-529.5 937,-499.5 767,-499.5"/>
<text text-anchor="start" x="774" y="-510.9" font-family="Arial" font-size="14.00" fill="#000000">is_superuser </text>
<text text-anchor="start" x="858.014" y="-510.9" font-family="Arial" font-size="14.00" fill="#666666">[bool]</text>
<polygon fill="none" stroke="#000000" points="767,-469.5 767,-499.5 937,-499.5 937,-469.5 767,-469.5"/>
<text text-anchor="start" x="774" y="-480.9" font-family="Arial" font-size="14.00" fill="#000000">username </text>
<text text-anchor="start" x="840.1248" y="-480.9" font-family="Arial" font-size="14.00" fill="#666666">[varchar(150)]</text>
<polygon fill="none" stroke="#000000" points="767,-439.5 767,-469.5 937,-469.5 937,-439.5 767,-439.5"/>
<text text-anchor="start" x="774" y="-450.9" font-family="Arial" font-size="14.00" fill="#000000">last_name </text>
<text text-anchor="start" x="842.4614" y="-450.9" font-family="Arial" font-size="14.00" fill="#666666">[varchar(150)]</text>
<polygon fill="none" stroke="#000000" points="767,-409.5 767,-439.5 937,-439.5 937,-409.5 767,-409.5"/>
<text text-anchor="start" x="774" y="-420.9" font-family="Arial" font-size="14.00" fill="#000000">email </text>
<text text-anchor="start" x="811.3296" y="-420.9" font-family="Arial" font-size="14.00" fill="#666666">[varchar(254)]</text>
<polygon fill="none" stroke="#000000" points="767,-379.5 767,-409.5 937,-409.5 937,-379.5 767,-379.5"/>
<text text-anchor="start" x="774" y="-390.9" font-family="Arial" font-size="14.00" fill="#000000">is_staff </text>
<text text-anchor="start" x="822.2342" y="-390.9" font-family="Arial" font-size="14.00" fill="#666666">[bool]</text>
<polygon fill="none" stroke="#000000" points="767,-349.5 767,-379.5 937,-379.5 937,-349.5 767,-349.5"/>
<text text-anchor="start" x="774" y="-360.9" font-family="Arial" font-size="14.00" fill="#000000">is_active </text>
<text text-anchor="start" x="832.3422" y="-360.9" font-family="Arial" font-size="14.00" fill="#666666">[bool]</text>
<polygon fill="none" stroke="#000000" points="767,-319.5 767,-349.5 937,-349.5 937,-319.5 767,-319.5"/>
<text text-anchor="start" x="774" y="-330.9" font-family="Arial" font-size="14.00" fill="#000000">date_joined </text>
<text text-anchor="start" x="850.2552" y="-330.9" font-family="Arial" font-size="14.00" fill="#666666">[datetime]</text>
<polygon fill="none" stroke="#000000" points="767,-289.5 767,-319.5 937,-319.5 937,-289.5 767,-289.5"/>
<text text-anchor="start" x="773.8254" y="-300.9" font-family="Arial" font-size="14.00" fill="#000000">first_name </text>
<text text-anchor="start" x="843.0554" y="-300.9" font-family="Arial" font-size="14.00" fill="#666666">[varchar(150)]</text>
</g>
<!-- auth_user_groups&#45;&gt;auth_user -->
<g id="edge4" class="edge">
<title>auth_user_groups:user_id&#45;&gt;auth_user:id</title>
<path fill="none" stroke="#000000" d="M1137.9526,-895.743C1079.3839,-886.0358 1146.6216,-785.3789 1096,-734 1060.7853,-698.2585 1027.5725,-730.0888 989,-698 952.4456,-667.59 984.5498,-604.5 937,-604.5"/>
<polygon fill="#000000" stroke="#000000" points="1138.0283,-895.7486 1147.6619,-900.9873 1143.0141,-896.1243 1148,-896.5 1148,-896.5 1148,-896.5 1143.0141,-896.1243 1148.3381,-892.0127 1138.0283,-895.7486 1138.0283,-895.7486"/>
<text text-anchor="start" x="1155.333" y="-906.5" font-family="Arial" font-size="10.00" fill="#000000">FOREIGN KEY (user_id) REFERENCES auth_user (id) ON UPDATE NO ACTION ON DELETE NO ACTION MATCH NONE</text>
</g>
<!-- auth_user_user_permissions -->
<g id="node4" class="node">
<title>auth_user_user_permissions</title>
<polygon fill="#efefef" stroke="transparent" points="757,-941.5 757,-976.5 1044,-976.5 1044,-941.5 757,-941.5"/>
<polygon fill="none" stroke="#000000" points="757,-941.5 757,-976.5 1044,-976.5 1044,-941.5 757,-941.5"/>
<text text-anchor="start" x="763.9685" y="-954.3" font-family="Arial Bold" font-size="18.00" fill="#000000">auth_user_user_permissions</text>
<text text-anchor="start" x="995.0147" y="-954.3" font-family="Arial" font-size="14.00" fill="#000000"> </text>
<text text-anchor="start" x="998.9053" y="-954.3" font-family="Arial" font-size="14.00" fill="#666666">[table]</text>
<polygon fill="none" stroke="#000000" points="757,-911.5 757,-941.5 1044,-941.5 1044,-911.5 757,-911.5"/>
<text text-anchor="start" x="764" y="-922.9" font-family="Arial" font-size="14.00" fill="#000000">id </text>
<text text-anchor="start" x="778.7798" y="-922.9" font-family="Arial" font-size="14.00" fill="#666666">[integer]</text>
<polygon fill="none" stroke="#000000" points="757,-881.5 757,-911.5 1044,-911.5 1044,-881.5 757,-881.5"/>
<text text-anchor="start" x="764" y="-892.9" font-family="Arial" font-size="14.00" fill="#000000">user_id </text>
<text text-anchor="start" x="813.7882" y="-892.9" font-family="Arial" font-size="14.00" fill="#666666">[integer]</text>
<polygon fill="none" stroke="#000000" points="757,-851.5 757,-881.5 1044,-881.5 1044,-851.5 757,-851.5"/>
<text text-anchor="start" x="764" y="-862.9" font-family="Arial" font-size="14.00" fill="#000000">permission_id </text>
<text text-anchor="start" x="854.2272" y="-862.9" font-family="Arial" font-size="14.00" fill="#666666">[integer]</text>
</g>
<!-- auth_user_user_permissions&#45;&gt;auth_permission -->
<g id="edge5" class="edge">
<title>auth_user_user_permissions:permission_id&#45;&gt;auth_permission:id</title>
<path fill="none" stroke="#000000" d="M1054.2572,-865.9529C1192.5752,-850.1988 881.5472,-499.5 1041,-499.5"/>
<polygon fill="#000000" stroke="#000000" points="1053.9858,-865.9673 1043.7603,-862.0064 1048.9929,-866.2336 1044,-866.5 1044,-866.5 1044,-866.5 1048.9929,-866.2336 1044.2397,-870.9936 1053.9858,-865.9673 1053.9858,-865.9673"/>
<text text-anchor="start" x="1051.448" y="-850.5" font-family="Arial" font-size="10.00" fill="#000000">FOREIGN KEY (permission_id) REFERENCES auth_permission (id) ON UPDATE NO ACTION ON DELETE NO ACTION MATCH NONE</text>
</g>
<!-- auth_user_user_permissions&#45;&gt;auth_user -->
<g id="edge6" class="edge">
<title>auth_user_user_permissions:user_id&#45;&gt;auth_user:id</title>
<path fill="none" stroke="#000000" d="M746.9087,-894.9197C722.1502,-885.8261 739.9707,-839.5083 757,-809 802.8095,-726.9313 891.1905,-780.0687 937,-698 957.254,-661.7145 978.5556,-604.5 937,-604.5"/>
<polygon fill="#000000" stroke="#000000" points="747.1204,-894.9528 756.3038,-900.9458 752.0602,-895.7264 757,-896.5 757,-896.5 757,-896.5 752.0602,-895.7264 757.6962,-892.0542 747.1204,-894.9528 747.1204,-894.9528"/>
<text text-anchor="start" x="197.333" y="-906.5" font-family="Arial" font-size="10.00" fill="#000000">FOREIGN KEY (user_id) REFERENCES auth_user (id) ON UPDATE NO ACTION ON DELETE NO ACTION MATCH NONE</text>
</g>
<!-- django_admin_log -->
<g id="node5" class="node">
<title>django_admin_log</title>
<polygon fill="#efefef" stroke="transparent" points="450,-1016.5 450,-1051.5 653,-1051.5 653,-1016.5 450,-1016.5"/>
<polygon fill="none" stroke="#000000" points="450,-1016.5 450,-1051.5 653,-1051.5 653,-1016.5 450,-1016.5"/>
<text text-anchor="start" x="456.967" y="-1029.3" font-family="Arial Bold" font-size="18.00" fill="#000000">django_admin_log</text>
<text text-anchor="start" x="604.0162" y="-1029.3" font-family="Arial" font-size="14.00" fill="#000000"> </text>
<text text-anchor="start" x="607.9068" y="-1029.3" font-family="Arial" font-size="14.00" fill="#666666">[table]</text>
<polygon fill="none" stroke="#000000" points="450,-986.5 450,-1016.5 653,-1016.5 653,-986.5 450,-986.5"/>
<text text-anchor="start" x="457" y="-997.9" font-family="Arial" font-size="14.00" fill="#000000">id </text>
<text text-anchor="start" x="471.7798" y="-997.9" font-family="Arial" font-size="14.00" fill="#666666">[integer]</text>
<polygon fill="none" stroke="#000000" points="450,-956.5 450,-986.5 653,-986.5 653,-956.5 450,-956.5"/>
<text text-anchor="start" x="457" y="-967.9" font-family="Arial" font-size="14.00" fill="#000000">action_time </text>
<text text-anchor="start" x="532.4586" y="-967.9" font-family="Arial" font-size="14.00" fill="#666666">[datetime]</text>
<polygon fill="none" stroke="#000000" points="450,-926.5 450,-956.5 653,-956.5 653,-926.5 450,-926.5"/>
<text text-anchor="start" x="457" y="-937.9" font-family="Arial" font-size="14.00" fill="#000000">object_id </text>
<text text-anchor="start" x="516.9074" y="-937.9" font-family="Arial" font-size="14.00" fill="#666666">[text]</text>
<polygon fill="none" stroke="#000000" points="450,-896.5 450,-926.5 653,-926.5 653,-896.5 450,-896.5"/>
<text text-anchor="start" x="457" y="-907.9" font-family="Arial" font-size="14.00" fill="#000000">object_repr </text>
<text text-anchor="start" x="530.9046" y="-907.9" font-family="Arial" font-size="14.00" fill="#666666">[varchar(200)]</text>
<polygon fill="none" stroke="#000000" points="450,-866.5 450,-896.5 653,-896.5 653,-866.5 450,-866.5"/>
<text text-anchor="start" x="457" y="-877.9" font-family="Arial" font-size="14.00" fill="#000000">change_message </text>
<text text-anchor="start" x="571.3772" y="-877.9" font-family="Arial" font-size="14.00" fill="#666666">[text]</text>
<polygon fill="none" stroke="#000000" points="450,-836.5 450,-866.5 653,-866.5 653,-836.5 450,-836.5"/>
<text text-anchor="start" x="457" y="-847.9" font-family="Arial" font-size="14.00" fill="#000000">content_type_id </text>
<text text-anchor="start" x="559.7124" y="-847.9" font-family="Arial" font-size="14.00" fill="#666666">[integer]</text>
<polygon fill="none" stroke="#000000" points="450,-806.5 450,-836.5 653,-836.5 653,-806.5 450,-806.5"/>
<text text-anchor="start" x="457" y="-817.9" font-family="Arial" font-size="14.00" fill="#000000">user_id </text>
<text text-anchor="start" x="506.7882" y="-817.9" font-family="Arial" font-size="14.00" fill="#666666">[integer]</text>
<polygon fill="none" stroke="#000000" points="450,-776.5 450,-806.5 653,-806.5 653,-776.5 450,-776.5"/>
<text text-anchor="start" x="457" y="-787.9" font-family="Arial" font-size="14.00" fill="#000000">action_flag </text>
<text text-anchor="start" x="528.5806" y="-787.9" font-family="Arial" font-size="14.00" fill="#666666">[smallint unsigned]</text>
</g>
<!-- django_content_type -->
<g id="node6" class="node">
<title>django_content_type</title>
<polygon fill="#efefef" stroke="transparent" points="755,-132.5 755,-167.5 978,-167.5 978,-132.5 755,-132.5"/>
<polygon fill="none" stroke="#000000" points="755,-132.5 755,-167.5 978,-167.5 978,-132.5 755,-132.5"/>
<text text-anchor="start" x="761.9509" y="-145.3" font-family="Arial Bold" font-size="18.00" fill="#000000">django_content_type</text>
<text text-anchor="start" x="929.0323" y="-145.3" font-family="Arial" font-size="14.00" fill="#000000"> </text>
<text text-anchor="start" x="932.9229" y="-145.3" font-family="Arial" font-size="14.00" fill="#666666">[table]</text>
<polygon fill="none" stroke="#000000" points="755,-102.5 755,-132.5 978,-132.5 978,-102.5 755,-102.5"/>
<text text-anchor="start" x="762" y="-113.9" font-family="Arial" font-size="14.00" fill="#000000">id </text>
<text text-anchor="start" x="776.7798" y="-113.9" font-family="Arial" font-size="14.00" fill="#666666">[integer]</text>
<polygon fill="none" stroke="#000000" points="755,-72.5 755,-102.5 978,-102.5 978,-72.5 755,-72.5"/>
<text text-anchor="start" x="762" y="-83.9" font-family="Arial" font-size="14.00" fill="#000000">app_label </text>
<text text-anchor="start" x="826.582" y="-83.9" font-family="Arial" font-size="14.00" fill="#666666">[varchar(100)]</text>
<polygon fill="none" stroke="#000000" points="755,-42.5 755,-72.5 978,-72.5 978,-42.5 755,-42.5"/>
<text text-anchor="start" x="762" y="-53.9" font-family="Arial" font-size="14.00" fill="#000000">model </text>
<text text-anchor="start" x="804.0056" y="-53.9" font-family="Arial" font-size="14.00" fill="#666666">[varchar(100)]</text>
</g>
<!-- django_admin_log&#45;&gt;django_content_type -->
<g id="edge8" class="edge">
<title>django_admin_log:content_type_id&#45;&gt;django_content_type:id</title>
<path fill="none" stroke="#000000" d="M662.4197,-847.8969C730.4416,-792.5239 676.0379,-117.5 755,-117.5"/>
<polygon fill="#000000" stroke="#000000" points="662.3401,-847.9273 651.3923,-847.297 657.67,-849.7137 653,-851.5 653,-851.5 653,-851.5 657.67,-849.7137 654.6077,-855.703 662.3401,-847.9273 662.3401,-847.9273"/>
<text text-anchor="start" x="7.251" y="-861.5" font-family="Arial" font-size="10.00" fill="#000000">FOREIGN KEY (content_type_id) REFERENCES django_content_type (id) ON UPDATE NO ACTION ON DELETE NO ACTION MATCH NONE</text>
</g>
<!-- django_admin_log&#45;&gt;auth_user -->
<g id="edge7" class="edge">
<title>django_admin_log:user_id&#45;&gt;auth_user:id</title>
<path fill="none" stroke="#000000" d="M661.4583,-816.1359C691.1136,-782.7197 742.3175,-604.5 767,-604.5"/>
<polygon fill="#000000" stroke="#000000" points="661.445,-816.1443 650.59,-817.6998 657.2225,-818.8222 653,-821.5 653,-821.5 653,-821.5 657.2225,-818.8222 655.41,-825.3002 661.445,-816.1443 661.445,-816.1443"/>
<text text-anchor="start" x="518.583" y="-805.5" font-family="Arial" font-size="10.00" fill="#000000">FOREIGN KEY (user_id) REFERENCES auth_user (id) ON UPDATE NO ACTION ON DELETE NO ACTION MATCH NONE</text>
</g>
<!-- auth_permission&#45;&gt;django_content_type -->
<g id="edge9" class="edge">
<title>auth_permission:content_type_id&#45;&gt;django_content_type:id</title>
<path fill="none" stroke="#000000" d="M1030.9452,-467.2522C970.1429,-437.2734 1053.7403,-117.5 978,-117.5"/>
<polygon fill="#000000" stroke="#000000" points="1031.2409,-467.3182 1040.0182,-473.8916 1036.1204,-468.4091 1041,-469.5 1041,-469.5 1041,-469.5 1036.1204,-468.4091 1041.9818,-465.1084 1031.2409,-467.3182 1031.2409,-467.3182"/>
<text text-anchor="start" x="1048.251" y="-479.5" font-family="Arial" font-size="10.00" fill="#000000">FOREIGN KEY (content_type_id) REFERENCES django_content_type (id) ON UPDATE NO ACTION ON DELETE NO ACTION MATCH NONE</text>
</g>
<!-- django_session -->
<g id="node10" class="node">
<title>django_session</title>
<polygon fill="#efefef" stroke="transparent" points="1810,-941.5 1810,-976.5 1991,-976.5 1991,-941.5 1810,-941.5"/>
<polygon fill="none" stroke="#000000" points="1810,-941.5 1810,-976.5 1991,-976.5 1991,-941.5 1810,-941.5"/>
<text text-anchor="start" x="1816.9695" y="-954.3" font-family="Arial Bold" font-size="18.00" fill="#000000">django_session</text>
<text text-anchor="start" x="1942.0137" y="-954.3" font-family="Arial" font-size="14.00" fill="#000000"> </text>
<text text-anchor="start" x="1945.9043" y="-954.3" font-family="Arial" font-size="14.00" fill="#666666">[table]</text>
<polygon fill="none" stroke="#000000" points="1810,-911.5 1810,-941.5 1991,-941.5 1991,-911.5 1810,-911.5"/>
<text text-anchor="start" x="1817" y="-922.9" font-family="Arial" font-size="14.00" fill="#000000">session_key </text>
<text text-anchor="start" x="1897.9102" y="-922.9" font-family="Arial" font-size="14.00" fill="#666666">[varchar(40)]</text>
<polygon fill="none" stroke="#000000" points="1810,-881.5 1810,-911.5 1991,-911.5 1991,-881.5 1810,-881.5"/>
<text text-anchor="start" x="1817" y="-892.9" font-family="Arial" font-size="14.00" fill="#000000">session_data </text>
<text text-anchor="start" x="1903.366" y="-892.9" font-family="Arial" font-size="14.00" fill="#666666">[text]</text>
<polygon fill="none" stroke="#000000" points="1810,-851.5 1810,-881.5 1991,-881.5 1991,-851.5 1810,-851.5"/>
<text text-anchor="start" x="1817" y="-862.9" font-family="Arial" font-size="14.00" fill="#000000">expire_date </text>
<text text-anchor="start" x="1894.0266" y="-862.9" font-family="Arial" font-size="14.00" fill="#666666">[datetime]</text>
</g>
<!-- app_weather -->
<g id="node11" class="node">
<title>app_weather</title>
<polygon fill="#efefef" stroke="transparent" points="2095,-986.5 2095,-1021.5 2255,-1021.5 2255,-986.5 2095,-986.5"/>
<polygon fill="none" stroke="#000000" points="2095,-986.5 2095,-1021.5 2255,-1021.5 2255,-986.5 2095,-986.5"/>
<text text-anchor="start" x="2101.9725" y="-999.3" font-family="Arial Bold" font-size="18.00" fill="#000000">app_weather</text>
<text text-anchor="start" x="2206.0107" y="-999.3" font-family="Arial" font-size="14.00" fill="#000000"> </text>
<text text-anchor="start" x="2209.9013" y="-999.3" font-family="Arial" font-size="14.00" fill="#666666">[table]</text>
<polygon fill="none" stroke="#000000" points="2095,-956.5 2095,-986.5 2255,-986.5 2255,-956.5 2095,-956.5"/>
<text text-anchor="start" x="2102" y="-967.9" font-family="Arial" font-size="14.00" fill="#000000">id </text>
<text text-anchor="start" x="2116.7798" y="-967.9" font-family="Arial" font-size="14.00" fill="#666666">[integer]</text>
<polygon fill="none" stroke="#000000" points="2095,-926.5 2095,-956.5 2255,-956.5 2255,-926.5 2095,-926.5"/>
<text text-anchor="start" x="2102" y="-937.9" font-family="Arial" font-size="14.00" fill="#000000">date </text>
<text text-anchor="start" x="2133.129" y="-937.9" font-family="Arial" font-size="14.00" fill="#666666">[date]</text>
<polygon fill="none" stroke="#000000" points="2095,-896.5 2095,-926.5 2255,-926.5 2255,-896.5 2095,-896.5"/>
<text text-anchor="start" x="2102" y="-907.9" font-family="Arial" font-size="14.00" fill="#000000">precipitation </text>
<text text-anchor="start" x="2181.3478" y="-907.9" font-family="Arial" font-size="14.00" fill="#666666">[real]</text>
<polygon fill="none" stroke="#000000" points="2095,-866.5 2095,-896.5 2255,-896.5 2255,-866.5 2095,-866.5"/>
<text text-anchor="start" x="2102" y="-877.9" font-family="Arial" font-size="14.00" fill="#000000">daylight </text>
<text text-anchor="start" x="2154.1248" y="-877.9" font-family="Arial" font-size="14.00" fill="#666666">[real]</text>
<polygon fill="none" stroke="#000000" points="2095,-836.5 2095,-866.5 2255,-866.5 2255,-836.5 2095,-836.5"/>
<text text-anchor="start" x="2102" y="-847.9" font-family="Arial" font-size="14.00" fill="#000000">area </text>
<text text-anchor="start" x="2133.899" y="-847.9" font-family="Arial" font-size="14.00" fill="#666666">[text]</text>
<polygon fill="none" stroke="#000000" points="2095,-806.5 2095,-836.5 2255,-836.5 2255,-806.5 2095,-806.5"/>
<text text-anchor="start" x="2102" y="-817.9" font-family="Arial" font-size="14.00" fill="#000000">windspeed </text>
<text text-anchor="start" x="2172.7994" y="-817.9" font-family="Arial" font-size="14.00" fill="#666666">[real]</text>
</g>
</g>
</svg>
